<?xml version="1.0" standalone="no"?>
<!DOCTYPE svg PUBLIC "-//W3C//DTD SVG 20010904//EN"
 "http://www.w3.org/TR/2001/REC-SVG-20010904/DTD/svg10.dtd">
<svg version="1.0" xmlns="http://www.w3.org/2000/svg"
 width="240.000000pt" height="240.000000pt" viewBox="0 0 240.000000 240.000000"
 preserveAspectRatio="xMidYMid meet">

<g transform="translate(0.000000,240.000000) scale(0.100000,-0.100000)"
fill="#000000" stroke="none">
<path d="M480 2350 l0 -40 -40 0 -40 0 0 -1110 0 -1110 40 0 40 0 0 -40 0 -40
680 0 680 0 0 40 0 40 40 0 40 0 0 1110 0 1110 -40 0 -40 0 0 40 0 40 -680 0
-680 0 0 -40z m400 -80 l0 -40 280 0 280 0 0 40 0 40 200 0 200 0 0 -1110 0
-1110 -680 0 -680 0 0 1110 0 1110 200 0 200 0 0 -40z"/>
<path d="M560 1160 l0 -990 160 0 160 0 0 40 0 40 40 0 40 0 0 40 0 40 200 0
200 0 0 -40 0 -40 40 0 40 0 0 -40 0 -40 160 0 160 0 0 990 0 990 -600 0 -600
0 0 -990z m1120 0 l0 -910 -120 0 -120 0 0 40 0 40 -40 0 c-39 0 -40 1 -40 35
l0 35 -200 0 -200 0 0 -35 c0 -34 -1 -35 -40 -35 l-40 0 0 -40 0 -40 -120 0
-120 0 0 910 0 910 520 0 520 0 0 -910z"/>
<path d="M720 1880 l0 -120 120 0 120 0 0 120 0 120 -120 0 -120 0 0 -120z
m160 0 l0 -40 -40 0 -40 0 0 40 0 40 40 0 40 0 0 -40z"/>
<path d="M1040 1880 l0 -120 120 0 120 0 0 120 0 120 -120 0 -120 0 0 -120z
m160 0 l0 -40 -40 0 -40 0 0 40 0 40 40 0 40 0 0 -40z"/>
<path d="M1360 1880 l0 -120 120 0 120 0 0 120 0 120 -120 0 -120 0 0 -120z
m160 0 l0 -40 -40 0 -40 0 0 40 0 40 40 0 40 0 0 -40z"/>
<path d="M720 1560 l0 -120 120 0 120 0 0 120 0 120 -120 0 -120 0 0 -120z
m160 0 l0 -40 -40 0 -40 0 0 40 0 40 40 0 40 0 0 -40z"/>
<path d="M1040 1560 l0 -120 120 0 120 0 0 120 0 120 -120 0 -120 0 0 -120z
m160 0 l0 -40 -40 0 -40 0 0 40 0 40 40 0 40 0 0 -40z"/>
<path d="M1360 1560 l0 -120 120 0 120 0 0 120 0 120 -120 0 -120 0 0 -120z
m160 0 l0 -40 -40 0 -40 0 0 40 0 40 40 0 40 0 0 -40z"/>
<path d="M720 1240 l0 -120 120 0 120 0 0 120 0 120 -120 0 -120 0 0 -120z
m160 0 l0 -40 -40 0 -40 0 0 40 0 40 40 0 40 0 0 -40z"/>
<path d="M1040 1240 l0 -120 120 0 120 0 0 120 0 120 -120 0 -120 0 0 -120z
m160 0 l0 -40 -40 0 -40 0 0 40 0 40 40 0 40 0 0 -40z"/>
<path d="M1360 1240 l0 -120 120 0 120 0 0 120 0 120 -120 0 -120 0 0 -120z
m160 0 l0 -40 -40 0 -40 0 0 40 0 40 40 0 40 0 0 -40z"/>
<path d="M720 920 l0 -120 120 0 120 0 0 120 0 120 -120 0 -120 0 0 -120z
m160 0 l0 -40 -40 0 -40 0 0 40 0 40 40 0 40 0 0 -40z"/>
<path d="M1040 920 l0 -120 120 0 120 0 0 120 0 120 -120 0 -120 0 0 -120z
m160 0 l0 -40 -40 0 -40 0 0 40 0 40 40 0 40 0 0 -40z"/>
<path d="M1360 920 l0 -120 120 0 120 0 0 120 0 120 -120 0 -120 0 0 -120z
m160 0 l0 -40 -40 0 -40 0 0 40 0 40 40 0 40 0 0 -40z"/>
<path d="M720 600 l0 -120 120 0 120 0 0 120 0 120 -120 0 -120 0 0 -120z
m160 0 l0 -40 -40 0 -40 0 0 40 0 40 40 0 40 0 0 -40z"/>
<path d="M1040 600 l0 -120 120 0 120 0 0 120 0 120 -120 0 -120 0 0 -120z
m160 0 l0 -40 -40 0 -40 0 0 40 0 40 40 0 40 0 0 -40z"/>
<path d="M1360 600 l0 -120 120 0 120 0 0 120 0 120 -120 0 -120 0 0 -120z
m160 0 l0 -40 -40 0 -40 0 0 40 0 40 40 0 40 0 0 -40z"/>
<path d="M1040 210 l0 -40 120 0 120 0 0 40 0 40 -120 0 -120 0 0 -40z"/>
</g>
</svg>
