<?xml version="1.0" standalone="no"?>
<!DOCTYPE svg PUBLIC "-//W3C//DTD SVG 20010904//EN"
 "http://www.w3.org/TR/2001/REC-SVG-20010904/DTD/svg10.dtd">
<svg version="1.0" xmlns="http://www.w3.org/2000/svg"
 width="242.000000pt" height="242.000000pt" viewBox="0 0 242.000000 242.000000"
 preserveAspectRatio="xMidYMid meet">

<g transform="translate(0.000000,242.000000) scale(0.100000,-0.100000)"
fill="#000000" stroke="none">
<path d="M10 1250 l0 -1080 840 0 840 0 0 40 0 40 40 0 40 0 0 80 0 80 40 0
40 0 0 80 0 80 40 0 40 0 0 80 0 80 40 0 40 0 0 80 0 80 40 0 40 0 0 80 0 80
40 0 40 0 0 80 0 80 40 0 40 0 0 80 0 80 40 0 40 0 0 80 0 80 40 0 40 0 0 120
0 120 -40 0 -40 0 0 40 0 40 -40 0 -40 0 0 40 0 40 -40 0 -40 0 0 40 0 40 -40
0 -40 0 0 40 0 40 -40 0 -40 0 0 40 0 40 -760 0 -760 0 0 40 0 40 -40 0 -40 0
0 40 0 40 -200 0 -200 0 0 -1080z m400 960 l0 -40 40 0 40 0 0 -40 0 -40 760
0 760 0 0 -40 0 -40 -760 0 -760 0 0 -40 0 -40 800 0 800 0 0 -80 0 -80 -680
0 -680 0 0 -40 0 -40 800 0 800 0 0 -80 0 -80 -40 0 -40 0 0 -80 0 -80 -40 0
-40 0 0 -80 0 -80 -40 0 -40 0 0 -80 0 -80 -40 0 -40 0 0 -80 0 -80 -40 0 -40
0 0 -80 0 -80 -40 0 -40 0 0 -80 0 -80 -40 0 -40 0 0 -80 0 -80 -40 0 -40 0 0
-80 0 -80 -800 0 -800 0 0 80 0 80 40 0 40 0 0 80 0 80 40 0 40 0 0 80 0 80
-80 0 -80 0 0 200 0 200 40 0 40 0 0 80 0 80 -40 0 -40 0 0 480 0 480 160 0
160 0 0 -40z"/>
<path d="M410 1850 l0 -80 -40 0 -40 0 0 -80 0 -80 -40 0 -40 0 0 -80 0 -80
-40 0 -40 0 0 -80 0 -80 40 0 40 0 0 80 0 80 40 0 40 0 0 80 0 80 40 0 40 0 0
80 0 80 40 0 40 0 0 80 0 80 -40 0 -40 0 0 -80z"/>
<path d="M650 1610 l0 -80 -40 0 -40 0 0 -80 0 -80 -40 0 -40 0 0 -80 0 -80
-40 0 -40 0 0 -80 0 -80 -40 0 -40 0 0 -80 0 -80 -40 0 -40 0 0 -80 0 -80 40
0 40 0 0 80 0 80 40 0 40 0 0 80 0 80 40 0 40 0 0 80 0 80 40 0 40 0 0 80 0
80 40 0 40 0 0 80 0 80 40 0 40 0 0 80 0 80 -40 0 -40 0 0 -80z"/>
<path d="M810 1170 l0 -40 -40 0 -40 0 0 -40 0 -40 -40 0 -40 0 0 -80 0 -80
40 0 40 0 0 -40 0 -40 80 0 80 0 0 40 0 40 40 0 40 0 0 40 0 40 40 0 40 0 0
-80 0 -80 120 0 120 0 0 40 0 40 -80 0 -80 0 0 40 0 40 40 0 40 0 0 40 0 40
40 0 40 0 0 40 0 40 40 0 40 0 0 40 0 40 -40 0 -40 0 0 -40 0 -40 -40 0 -40 0
0 -40 0 -40 -40 0 -40 0 0 -40 0 -40 -40 0 -40 0 0 80 0 80 -40 0 -40 0 0 40
0 40 -80 0 -80 0 0 -40z m160 -120 l0 -80 -40 0 -40 0 0 -40 0 -40 -80 0 -80
0 0 80 0 80 40 0 40 0 0 40 0 40 80 0 80 0 0 -80z"/>
<path d="M1610 1170 l0 -40 -40 0 -40 0 0 -80 0 -80 -40 0 -40 0 0 -40 0 -40
-40 0 -40 0 0 -40 0 -40 160 0 160 0 0 40 0 40 40 0 40 0 0 40 0 40 40 0 40 0
0 80 0 80 -40 0 -40 0 0 40 0 40 -80 0 -80 0 0 -40z m160 -120 l0 -80 -40 0
-40 0 0 -40 0 -40 -80 0 -80 0 0 40 0 40 40 0 40 0 0 80 0 80 80 0 80 0 0 -80z"/>
</g>
</svg>
