<?xml version="1.0" standalone="no"?>
<!DOCTYPE svg PUBLIC "-//W3C//DTD SVG 20010904//EN"
 "http://www.w3.org/TR/2001/REC-SVG-20010904/DTD/svg10.dtd">
<svg version="1.0" xmlns="http://www.w3.org/2000/svg"
 width="270.000000pt" height="270.000000pt" viewBox="0 0 270.000000 270.000000"
 preserveAspectRatio="xMidYMid meet">

<g transform="translate(0.000000,270.000000) scale(0.100000,-0.100000)"
fill="#000000" stroke="none">
<path d="M450 2070 l0 -630 -90 0 -90 0 0 -45 0 -45 -45 0 -45 0 0 -90 0 -90
45 0 45 0 0 -45 0 -45 90 0 90 0 0 -540 0 -540 135 0 135 0 0 540 0 540 45 0
45 0 0 -540 0 -540 135 0 135 0 0 540 0 540 45 0 45 0 0 -540 0 -540 135 0
135 0 0 540 0 540 45 0 45 0 0 -540 0 -540 135 0 135 0 0 540 0 540 45 0 45 0
0 -540 0 -540 135 0 135 0 0 540 0 540 90 0 90 0 0 45 0 45 45 0 45 0 0 90 0
90 -45 0 -45 0 0 45 0 45 -90 0 -90 0 0 630 0 630 -855 0 -855 0 0 -630z
m1350 495 l0 -45 45 0 45 0 0 45 0 45 90 0 90 0 0 -585 0 -585 -360 0 -360 0
0 45 0 45 -45 0 -45 0 0 -45 0 -45 -360 0 -360 0 0 540 0 540 45 0 45 0 0 45
0 45 585 0 585 0 0 -45z m540 -1305 l0 -90 -1035 0 -1035 0 0 90 0 90 1035 0
1035 0 0 -90z m-1710 -675 l0 -495 -45 0 -45 0 0 495 0 495 45 0 45 0 0 -495z
m360 0 l0 -495 -45 0 -45 0 0 495 0 495 45 0 45 0 0 -495z m360 0 l0 -495 -45
0 -45 0 0 495 0 495 45 0 45 0 0 -495z m360 0 l0 -495 -45 0 -45 0 0 495 0
495 45 0 45 0 0 -495z m360 0 l0 -495 -45 0 -45 0 0 495 0 495 45 0 45 0 0
-495z"/>
<path d="M630 2475 l0 -45 45 0 45 0 0 -45 0 -45 45 0 45 0 0 -45 0 -45 45 0
45 0 0 -45 0 -45 45 0 45 0 0 -45 0 -45 45 0 45 0 0 -45 0 -45 45 0 45 0 0
-45 0 -45 45 0 45 0 0 -45 0 -45 45 0 45 0 0 -45 0 -45 45 0 45 0 0 -45 0 -45
-45 0 -45 0 0 -45 0 -45 45 0 45 0 0 45 0 45 45 0 45 0 0 45 0 45 -45 0 -45 0
0 45 0 45 -45 0 -45 0 0 45 0 45 -45 0 -45 0 0 45 0 45 45 0 45 0 0 45 0 45
45 0 45 0 0 45 0 45 45 0 45 0 0 45 0 45 45 0 45 0 0 45 0 45 45 0 45 0 0 45
0 45 45 0 45 0 0 45 0 45 -45 0 -45 0 0 -45 0 -45 -45 0 -45 0 0 -45 0 -45
-45 0 -45 0 0 -45 0 -45 -45 0 -45 0 0 -45 0 -45 -45 0 -45 0 0 -45 0 -45 -45
0 -45 0 0 -45 0 -45 -45 0 -45 0 0 45 0 45 -45 0 -45 0 0 45 0 45 -45 0 -45 0
0 45 0 45 -45 0 -45 0 0 45 0 45 -45 0 -45 0 0 45 0 45 -45 0 -45 0 0 45 0 45
-45 0 -45 0 0 -45z"/>
</g>
</svg>
