<?xml version="1.0" encoding="UTF-8"?>
<svg id="Layer_2" xmlns="http://www.w3.org/2000/svg" viewBox="0 0 459.64 406.5">
  <defs>
    <style>
      .cls-1 {
        fill: #f9f6ee;
      }
    </style>
  </defs>
  <g id="Layer_1-2" data-name="Layer_1">
    <path class="cls-1" d="M459.64,150.23c-5.81.47-11.62.47-17.83.47v16.83h-40.01v18.01h-35.01v18.01h-36.01v18.01h-39.01v22.01h-18.01v17.01h-18.01v17.86h-16.86v-56.65h16.51v-35.85h-34.67v17.68h-40.01v18.01h-18.01v22.01h-17.01v17.01h-18.01v36.01h-18.01v35.01h-17.01v40.01h-22.01v34.81h-36.01v-16.8h-16.84v-17.66H0v-40.01h17.32v-35.01h17.01v-36.01h18.01v-39.01h18.01v-18.01h22.01v-18.01h17.01v-18.01h18.01v-17.01h18.01v-18.01h35.01v-22.01h40.01v-18.01h34.92v-35.01h-16.39V0h16.5v22.51h18.01v17.01h18.01v18.01h39.01v18.01h36.01v17.01h35.01v18.01h40.01v22.14h17.66c.47,5.69.47,11.38.47,17.53Z"/>
  </g>
</svg>