<?xml version="1.0" encoding="UTF-8"?>
<svg id="Layer_2" xmlns="http://www.w3.org/2000/svg" viewBox="0 0 168.79 421.65">
  <defs>
    <style>
      .cls-1 {
        fill: #020202;
      }
    </style>
  </defs>
  <g id="Layer_1-2" data-name="Layer_1">
    <g id="Layer_1-2">
      <path class="cls-1" d="M7.79,386.28v.63c0,4.06,0,4.04-3.98,4.08-1.21,0-2.87-.5-3.35,1.05-.6,1.91-.71,4,.23,5.9.36.72,1.23.77,2,.78,1.12.02,2.25.04,3.37.03,1.24-.02,1.67.59,1.75,1.79.11,1.76-.74,3.84.56,5.2,1.33,1.38,3.43.48,5.18.6,1.32.09,1.9.61,1.86,1.92-.03,1.04.06,2.1,0,3.14-.11,1.96.82,2.62,2.71,2.63,4.84.04,4.92.1,4.92,4.85,0,2.05.81,2.81,2.81,2.77,3.59-.07,7.19-.04,10.78-.01,1.59.01,2.42-.62,2.3-2.27,0-.15,0-.3,0-.45-.01-5.38.42-5.17-4.91-5.01-2.21.06-2.82-.74-2.77-2.85.12-5.19.42-4.84-4.85-4.84-3.19,0-3.21-.01-3.19-3.23.03-4.59-.47-4.25,4.21-4.27,4.95-.01,9.89-.01,14.83-.01,4.29,0,4.32-.04,4.32-4.21v-3.03c.87-.59,1.72-.41,2.52-.41,2.85-.02,5.69,0,8.54,0,4.14,0,4.22-.07,4.22-4.31,0-2.21,1.12-3.31,3.34-3.31,3.07-.02,6.14-.05,9.21,0,1.89.03,2.68-.81,2.75-2.69.18-4.77.22-4.82,4.83-4.95,1.94-.05,2.83-.76,2.83-2.82.02-4.83.1-4.83,4.95-4.83,2.47,0,4.94-.03,7.41,0,1.94.02,2.96-.84,2.87-2.84v-.22c.09-2.87,1.53-4.4,4.32-4.61,2.58-.19,3.26-.9,3.32-3.49v-.67c.02-2.42,1.27-3.65,3.75-3.68,3.52-.04,3.88-.4,3.9-3.82.01-2.39,1.18-3.59,3.51-3.6,3.98-.01,4.11-.15,4.11-4.22,0-3.07.05-6.14-.03-9.21-.04-1.59.46-2.25,2.16-2.3,5.26-.15,5.31-.21,5.51-5.58.05-1.58.66-2.12,2.16-2.06,6.12.24,5.44-.02,5.47-5.7.02-2.47.08-4.94-.01-7.41-.06-1.69.65-2.33,2.26-2.16h.22c5.09-.09,5.18-.09,5.15-5.13-.01-2.02.74-2.53,2.64-2.52,5.01.03,5.01-.04,5.01-5.12,0-5.1.06-10.19-.02-15.28-.03-1.79.48-2.59,2.4-2.51,5.94.26,5.26-.53,5.28-5.54.02-4.95.05-9.89-.02-14.83-.03-1.75.42-2.59,2.37-2.55,5.43.12,5.29.61,5.29-5.4-.03-24.64-.02-49.27-.03-73.91,0-4.2-.93-5.25-5.11-5.23-2.05.01-2.55-.81-2.52-2.68.08-5.77.04-11.53.02-17.3-.01-2.77-.22-2.96-2.92-3-5.11-.07-4.69.68-4.71-4.68-.03-5.17-.08-10.33,0-15.5.03-2.07-.79-2.76-2.8-2.76-4.78,0-4.85-.07-4.82-4.72.01-2.09-.68-2.94-2.86-2.93-5.3.03-4.78.91-4.82-4.95-.02-2.77-.04-5.54,0-8.31.02-1.7-.73-2.38-2.44-2.43-4.91-.15-4.95-.2-5.18-4.85-.08-1.58-.72-2.37-2.32-2.32-.15.01-.3,0-.45,0-3.26-.09-4.89-1.74-4.89-4.94,0-2.7-.02-5.39-.02-8.09,0-1.8-.66-2.73-2.66-2.75-4.84-.06-4.92-.14-4.92-4.88,0-2.06-.82-2.75-2.82-2.75-4.73-.01-4.79-.08-4.84-4.96-.02-1.9-.69-2.68-2.64-2.7-4.86-.05-4.93-.12-4.98-5.02-.02-1.97-.82-2.64-2.71-2.6-3.44.08-6.89-.04-10.33.04-1.63.04-2.23-.55-2.28-2.2-.16-5.25-.21-5.3-5.37-5.43-1.62-.04-2.23-.57-2.28-2.22-.18-5.44-.23-5.44-5.65-5.44-2.55,0-5.1-.05-7.64,0-1.45.03-2.07-.59-1.97-2.01v-.22c.08-6.14.27-5.35-5.71-5.4-3.13-.02-6.25,0-9.58,0,0-1.86-.06-3.42.02-4.97.11-1.94-.76-2.68-2.66-2.67-5.99.05-11.98-.07-17.97.05-2.21.05-2.84-.75-2.78-2.86.14-5.39-.42-4.64,4.7-4.72,2.92-.05,3.39-.51,3.41-3.41.04-4.64-.38-4.15,4.27-4.21,2.91-.03,3.35-.49,3.38-3.42,0-.67-.03-1.35,0-2.02C38.99.74,38.3-.02,36.66,0c-3.59.04-7.19.04-10.78,0-1.99-.02-2.81.9-2.85,2.87-.09,4.27-.15,4.27-4.35,4.33-2.74.04-3.24.54-3.28,3.3-.04,3.11-1.58,4.7-4.61,4.78-2.47.06-2.96.57-3.02,3.09-.07,2.97-1.6,4.48-4.6,4.54-2.66.06-3.03.48-3.05,3.48-.02,3.49.49,4.19,3.09,4.28,2.95.11,4.47,1.65,4.56,4.62.07,2.42.63,2.99,3.12,3.02,4.91.05,4.45-.41,4.51,4.47.03,2.59.59,3.12,3.21,3.16,4.82.08,4.4-.5,4.44,4.53.02,2.79.32,3.09,3.09,3.12,3.41.05,5.12-1.66,5.12-5.13,0-2.7-.03-5.39,0-8.09.02-1.51-.65-2.21-2.16-2.18-1.19.02-2.39,0-3.59-.02-.45,0-1.03.11-1.32-.12-2.05-1.61-.65-3.86-.95-5.81-.17-1.14.65-1.55,1.7-1.55,3.97,0,7.94,0,11.91-.03,1.23,0,1.43.64,1.49,1.7.3,5.56.32,5.6,5.7,5.94,1.48.09,1.98.74,1.91,2.1-.33,6.34.48,5.46,5.95,5.53,2.4.02,4.8.06,7.19,0,1.51-.04,2.21.52,2.14,2.09-.31,6.46.4,5.48,5.88,5.55,2.62.03,5.24.04,7.86,0,1.41-.02,1.95.54,2.02,1.98.25,5.29.29,5.33,5.64,5.64,1.45.08,1.9.66,1.97,2.05.28,5.6.31,5.6,5.91,5.61,2.4,0,4.79.05,7.19,0,1.49-.04,2.11.53,2.18,2.09.24,5.23.29,5.27,5.66,5.53,1.44.07,2.01.59,1.99,2.02-.04,3.67.05,7.34-.02,11.01-.04,1.93.84,2.75,2.69,2.71h.22c4.33.16,4.35.16,4.73,4.49.16,1.88,1.16,2.86,2.97,3.06.89.09,1.8.12,2.69.08,1.43-.06,2.01.54,1.99,1.99-.06,3.37-.04,6.74,0,10.11.03,2.56.63,3.12,3.22,3.17h.22c4.67.03,4.14-.32,4.18,4.29.02,2.94.44,3.35,3.4,3.37,4.68.03,4.22-.43,4.24,4.21.02,4.95.01,9.89.02,14.83.01,2.88.85,3.74,3.7,3.84.37,0,.75.05,1.12,0,2.16-.27,2.87.68,2.83,2.82-.11,5.38-.05,10.78-.02,16.17.02,3.29.69,3.92,3.97,3.96,2.45.03,3.67,1.26,3.67,3.7v76.83c0,3.35-.01,3.35-3.3,3.37-3.63.02-4.32.69-4.33,4.33-.01,5.47-.09,10.94.03,16.4.04,2.1-.73,2.87-2.74,2.64-.6-.07-1.2-.03-1.8,0-2.26.09-3.11.9-3.12,3.18-.04,5.69-.09,11.38.02,17.07.04,2.05-.65,2.91-2.7,2.67-.73-.09-1.49-.02-2.24,0-1.8.05-2.69.91-2.76,2.79-.17,4.52-.21,4.55-4.75,4.83-1.94.12-2.86,1.1-2.86,3,0,3.29-.08,6.59,0,9.88.04,1.68-.47,2.44-2.29,2.41-5.09-.09-5.56-.74-5.36,5.36.06,1.83-.76,2.33-2.43,2.28-5.45-.16-5.24-.08-5.21,5.34,0,2.62-.05,5.24,0,7.86.02,1.37-.42,1.99-1.91,2.08-5.38.31-5.43.36-5.74,5.72-.09,1.52-.76,1.9-2.11,1.89-3.37-.04-6.74-.04-10.11,0-2.43.03-2.98.62-3.06,3.1-.16,4.76-.16,4.8-4.85,4.97-1.98.08-2.78.94-2.81,2.92-.06,4.74-.12,4.74-4.81,4.74-2.7,0-5.39.02-8.09,0-1.94-.02-2.86.82-2.84,2.85.05,4.46.68,4.34-4.37,4.33-2.7,0-5.4.07-8.09,0-1.98-.05-2.83.7-2.83,2.77-.02,5.05-.09,5.09-5.34,5.32-1.62.07-2.22.74-2.28,2.33-.2,5.32-.24,5.32-5.64,5.32-2.4,0-4.8-.09-7.19.01-1.79.07-2.34-.68-2.32-2.39.06-6.17-.46-5.02,4.9-5.16,2.62-.06,3.15-.54,3.18-3.18.04-3.22-.03-6.44.03-9.66.03-1.8-.7-2.66-2.53-2.55-.82.05-1.65-.01-2.47.02-2.41.09-3.15.86-3.21,3.31,0,.52-.06,1.05,0,1.57.21,1.81-.67,2.29-2.36,2.32-5.22.09-5.32.15-5.25,5.36.03,2.24-.83,2.93-2.9,2.73-.96-.09-1.95-.06-2.91.07-1.64.22-1.88,1.47-1.86,2.84l.05.11Z"/>
    </g>
  </g>
</svg>