<?xml version="1.0" encoding="UTF-8"?>
<svg id="Layer_2" xmlns="http://www.w3.org/2000/svg" viewBox="0 0 168.8 421.67">
  <defs>
    <style>
      .cls-1 {
        fill: #010101;
      }
    </style>
  </defs>
  <g id="Layer_1-2" data-name="Layer_1">
    <path class="cls-1" d="M161.01,386.28c.02-1.37-.22-2.62-1.86-2.84-.96-.13-1.95-.16-2.91-.07-2.07.2-2.93-.49-2.9-2.73.07-5.21-.03-5.27-5.25-5.36-1.69-.03-2.57-.51-2.36-2.32.06-.52.01-1.05,0-1.57-.06-2.45-.8-3.22-3.21-3.31-.82-.03-1.65.03-2.47-.02-1.83-.11-2.56.75-2.53,2.55.06,3.22-.01,6.44.03,9.66.03,2.64.56,3.12,3.18,3.18,5.36.14,4.84-1.01,4.9,5.16.02,1.71-.53,2.46-2.32,2.39-2.39-.1-4.79-.01-7.19-.01-5.4,0-5.44,0-5.64-5.32-.06-1.59-.66-2.26-2.28-2.33-5.25-.23-5.32-.27-5.34-5.32,0-2.07-.85-2.82-2.83-2.77-2.69.07-5.39,0-8.09,0-5.05.01-4.42.13-4.37-4.33.02-2.03-.9-2.87-2.84-2.85-2.7.02-5.39,0-8.09,0-4.69,0-4.75,0-4.81-4.74-.03-1.98-.83-2.84-2.81-2.92-4.69-.17-4.69-.21-4.85-4.97-.08-2.48-.63-3.07-3.06-3.1-3.37-.04-6.74-.04-10.11,0-1.35.01-2.02-.37-2.11-1.89-.31-5.36-.36-5.41-5.74-5.72-1.49-.09-1.93-.71-1.91-2.08.05-2.62,0-5.24,0-7.86.03-5.42.24-5.5-5.21-5.34-1.67.05-2.49-.45-2.43-2.28.2-6.1-.27-5.45-5.36-5.36-1.82.03-2.33-.73-2.29-2.41.08-3.29.01-6.59,0-9.88,0-1.9-.92-2.88-2.86-3-4.54-.28-4.58-.31-4.75-4.83-.07-1.88-.96-2.74-2.76-2.79-.75-.02-1.51-.09-2.24,0-2.05.24-2.74-.62-2.7-2.67.11-5.69.06-11.38.02-17.07-.01-2.28-.86-3.09-3.12-3.18-.6-.03-1.2-.07-1.8,0-2.01.23-2.78-.54-2.74-2.64.12-5.46.04-10.93.03-16.4-.01-3.64-.7-4.31-4.33-4.33-3.29-.02-3.3-.02-3.3-3.37,0-25.61,0-51.22,0-76.83q0-3.66,3.67-3.7c3.28-.04,3.95-.67,3.97-3.96.03-5.39.09-10.79-.02-16.17-.04-2.14.67-3.09,2.83-2.82.37.05.75.01,1.12,0,2.85-.1,3.69-.96,3.7-3.84.01-4.94,0-9.88.02-14.83.02-4.64-.44-4.18,4.24-4.21,2.96-.02,3.38-.43,3.4-3.37.04-4.61-.49-4.26,4.18-4.29.07,0,.15,0,.22,0,2.59-.05,3.19-.61,3.22-3.17.04-3.37.06-6.74,0-10.11-.02-1.45.56-2.05,1.99-1.99.89.04,1.8.01,2.69-.08,1.81-.2,2.81-1.18,2.97-3.06.38-4.33.4-4.33,4.73-4.49.07,0,.15,0,.22,0,1.85.04,2.73-.78,2.69-2.71-.07-3.67.02-7.34-.02-11.01-.02-1.43.55-1.95,1.99-2.02,5.37-.26,5.42-.3,5.66-5.53.07-1.56.69-2.13,2.18-2.09,2.4.05,4.79,0,7.19,0,5.6-.01,5.63-.01,5.91-5.61.07-1.39.52-1.97,1.97-2.05,5.35-.31,5.39-.35,5.64-5.64.07-1.44.61-2,2.02-1.98,2.62.04,5.24.03,7.86,0,5.48-.07,6.19.91,5.88-5.55-.07-1.57.63-2.13,2.14-2.09,2.39.06,4.79.02,7.19,0,5.47-.07,6.28.81,5.95-5.53-.07-1.36.43-2.01,1.91-2.1,5.38-.34,5.4-.38,5.7-5.94.06-1.06.26-1.71,1.49-1.7,3.97.03,7.94.03,11.91.03,1.05,0,1.87.41,1.7,1.55-.3,1.95,1.1,4.2-.95,5.81-.29.23-.87.11-1.32.12-1.2.02-2.4.04-3.59.02-1.51-.03-2.18.67-2.16,2.18.03,2.7,0,5.39,0,8.09q0,5.2,5.12,5.13c2.77-.03,3.07-.33,3.09-3.12.04-5.03-.38-4.45,4.44-4.53,2.62-.04,3.18-.57,3.21-3.16.06-4.88-.4-4.42,4.51-4.47,2.49-.03,3.05-.6,3.12-3.02q.14-4.46,4.56-4.62c2.6-.09,3.11-.79,3.09-4.28-.02-3-.39-3.42-3.05-3.48q-4.5-.09-4.6-4.54c-.06-2.52-.55-3.03-3.02-3.09q-4.55-.12-4.61-4.78c-.04-2.76-.54-3.26-3.28-3.3-4.2-.06-4.26-.06-4.35-4.33-.04-1.97-.86-2.89-2.85-2.87-3.59.04-7.19.04-10.78,0-1.64-.02-2.33.74-2.25,2.33.03.67,0,1.35,0,2.02.03,2.93.47,3.39,3.38,3.42,4.65.06,4.23-.43,4.27,4.21.02,2.9.49,3.36,3.41,3.41,5.12.08,4.56-.67,4.7,4.72.06,2.11-.57,2.91-2.78,2.86-5.99-.12-11.98,0-17.97-.05-1.9-.01-2.77.73-2.66,2.67.08,1.55.02,3.11.02,4.97-3.33,0-6.45-.02-9.58,0-5.98.05-5.79-.74-5.71,5.4,0,.07,0,.15,0,.22.1,1.42-.52,2.04-1.97,2.01-2.54-.05-5.09,0-7.64,0-5.42,0-5.47,0-5.65,5.44-.05,1.65-.66,2.18-2.28,2.22-5.16.13-5.21.18-5.37,5.43-.05,1.65-.65,2.24-2.28,2.2-3.44-.08-6.89.04-10.33-.04-1.89-.04-2.69.63-2.71,2.6-.05,4.9-.12,4.97-4.98,5.02-1.95.02-2.62.8-2.64,2.7-.05,4.88-.11,4.95-4.84,4.96-2,0-2.82.69-2.82,2.75,0,4.74-.08,4.82-4.92,4.88-2,.02-2.66.95-2.66,2.75,0,2.7-.02,5.39-.02,8.09q0,4.8-4.89,4.94c-.15,0-.3.01-.45,0-1.6-.05-2.24.74-2.32,2.32-.23,4.65-.27,4.7-5.18,4.85-1.71.05-2.46.73-2.44,2.43.04,2.77.02,5.54,0,8.31-.04,5.86.48,4.98-4.82,4.95-2.18-.01-2.87.84-2.86,2.93.03,4.65-.04,4.72-4.82,4.72-2.01,0-2.83.69-2.8,2.76.08,5.17.03,10.33,0,15.5-.02,5.36.4,4.61-4.71,4.68-2.7.04-2.91.23-2.92,3-.02,5.77-.06,11.53.02,17.3.03,1.87-.47,2.69-2.52,2.68-4.18-.02-5.11,1.03-5.11,5.23-.01,24.64,0,49.27-.03,73.91,0,6.01-.14,5.52,5.29,5.4,1.95-.04,2.4.8,2.37,2.55-.07,4.94-.04,9.88-.02,14.83.02,5.01-.66,5.8,5.28,5.54,1.92-.08,2.43.72,2.4,2.51-.08,5.09-.03,10.18-.02,15.28,0,5.08,0,5.15,5.01,5.12,1.9-.01,2.65.5,2.64,2.52-.03,5.04.06,5.04,5.15,5.13.07,0,.15,0,.22,0,1.61-.17,2.32.47,2.26,2.16-.09,2.47-.03,4.94-.01,7.41.03,5.68-.65,5.94,5.47,5.7,1.5-.06,2.11.48,2.16,2.06.2,5.37.25,5.43,5.51,5.58,1.7.05,2.2.71,2.16,2.3-.08,3.07-.03,6.14-.03,9.21,0,4.07.13,4.21,4.11,4.22q3.49.01,3.51,3.6c.02,3.42.38,3.78,3.9,3.82q3.72.05,3.75,3.68c0,.22,0,.45,0,.67.06,2.59.74,3.3,3.32,3.49q4.19.31,4.32,4.61c0,.07,0,.15,0,.22-.09,2,.93,2.86,2.87,2.84,2.47-.03,4.94,0,7.41,0,4.85,0,4.93,0,4.95,4.83,0,2.06.89,2.77,2.83,2.82,4.61.13,4.65.18,4.83,4.95.07,1.88.86,2.72,2.75,2.69,3.07-.05,6.14-.02,9.21,0q3.33,0,3.34,3.31c0,4.24.08,4.31,4.22,4.31,2.85,0,5.69-.02,8.54,0,.8,0,1.65-.18,2.52.41,0,.97,0,2,0,3.03,0,4.17.03,4.21,4.32,4.21,4.94,0,9.88,0,14.83.01,4.68.02,4.18-.32,4.21,4.27.02,3.22,0,3.23-3.19,3.23-5.27,0-4.97-.35-4.85,4.84.05,2.11-.56,2.91-2.77,2.85-5.33-.16-4.9-.37-4.91,5.01,0,.15.01.3,0,.45-.12,1.65.71,2.28,2.3,2.27,3.59-.03,7.19-.06,10.78.01,2,.04,2.81-.72,2.81-2.77,0-4.75.08-4.81,4.92-4.85,1.89-.01,2.82-.67,2.71-2.63-.06-1.04.03-2.1,0-3.14-.04-1.31.54-1.83,1.86-1.92,1.75-.12,3.85.78,5.18-.6,1.3-1.36.45-3.44.56-5.2.08-1.2.51-1.81,1.75-1.79,1.12.01,2.25-.01,3.37-.03.77-.01,1.64-.06,2-.78.94-1.9.83-3.99.23-5.9-.48-1.55-2.14-1.04-3.35-1.05-3.97-.04-3.97-.02-3.98-4.08,0-.07,0-.15,0-.63Z"/>
  </g>
</svg>