<?xml version="1.0" standalone="no"?>
<!DOCTYPE svg PUBLIC "-//W3C//DTD SVG 20010904//EN"
 "http://www.w3.org/TR/2001/REC-SVG-20010904/DTD/svg10.dtd">
<svg version="1.0" xmlns="http://www.w3.org/2000/svg"
 width="1590.000000pt" height="1590.000000pt" viewBox="0 0 1590.000000 1590.000000"
 preserveAspectRatio="xMidYMid meet">

<g transform="translate(0.000000,1590.000000) scale(0.100000,-0.100000)"
fill="#000000" stroke="none">
<path d="M4240 11925 l0 -265 -265 0 -265 0 0 -2915 0 -2915 265 0 265 0 0
-265 0 -265 -530 0 -530 0 0 -265 0 -265 -265 0 -265 0 0 -265 0 -265 -265 0
-265 0 0 -265 0 -265 -265 0 -265 0 0 -265 0 -265 -265 0 -265 0 0 -265 0
-265 265 0 265 0 0 -265 0 -265 265 0 265 0 0 -265 0 -265 5830 0 5830 0 0
265 0 265 265 0 265 0 0 265 0 265 265 0 265 0 0 265 0 265 -265 0 -265 0 0
265 0 265 -265 0 -265 0 0 265 0 265 -265 0 -265 0 0 265 0 265 -265 0 -265 0
0 265 0 265 -530 0 -530 0 0 265 0 265 265 0 265 0 0 2915 0 2915 -265 0 -265
0 0 265 0 265 -3710 0 -3710 0 0 -265z m7420 -3180 l0 -2915 -3710 0 -3710 0
0 2915 0 2915 3710 0 3710 0 0 -2915z m0 -3710 l0 -265 530 0 530 0 0 -265 0
-265 265 0 265 0 0 -265 0 -265 265 0 265 0 0 -265 0 -265 265 0 265 0 0 -265
0 -265 -265 0 -265 0 0 -265 0 -265 -5830 0 -5830 0 0 265 0 265 -265 0 -265
0 0 265 0 265 265 0 265 0 0 265 0 265 265 0 265 0 0 265 0 265 265 0 265 0 0
265 0 265 530 0 530 0 0 265 0 265 3710 0 3710 0 0 -265z"/>
<path d="M4770 9275 l0 -1855 3180 0 3180 0 0 1855 0 1855 -3180 0 -3180 0 0
-1855z m4770 1060 l0 -265 -265 0 -265 0 0 -265 0 -265 -265 0 -265 0 0 -265
0 -265 -265 0 -265 0 0 -265 0 -265 -265 0 -265 0 0 -265 0 -265 -530 0 -530
0 0 265 0 265 265 0 265 0 0 265 0 265 265 0 265 0 0 265 0 265 265 0 265 0 0
265 0 265 265 0 265 0 0 265 0 265 530 0 530 0 0 -265z m1060 -530 l0 -265
-265 0 -265 0 0 -265 0 -265 -265 0 -265 0 0 -265 0 -265 -265 0 -265 0 0
-265 0 -265 -265 0 -265 0 0 265 0 265 265 0 265 0 0 265 0 265 265 0 265 0 0
265 0 265 265 0 265 0 0 265 0 265 265 0 265 0 0 -265z"/>
<path d="M4770 4505 l0 -265 -265 0 -265 0 0 -265 0 -265 265 0 265 0 0 265 0
265 530 0 530 0 0 -265 0 -265 265 0 265 0 0 265 0 265 265 0 265 0 0 -265 0
-265 265 0 265 0 0 265 0 265 265 0 265 0 0 -265 0 -265 265 0 265 0 0 265 0
265 265 0 265 0 0 -265 0 -265 265 0 265 0 0 265 0 265 265 0 265 0 0 -265 0
-265 265 0 265 0 0 265 0 265 265 0 265 0 0 -265 0 -265 265 0 265 0 0 265 0
265 -265 0 -265 0 0 265 0 265 -265 0 -265 0 0 -265 0 -265 -265 0 -265 0 0
265 0 265 -265 0 -265 0 0 -265 0 -265 -265 0 -265 0 0 265 0 265 -265 0 -265
0 0 -265 0 -265 -265 0 -265 0 0 265 0 265 -265 0 -265 0 0 -265 0 -265 -265
0 -265 0 0 265 0 265 -265 0 -265 0 0 -265 0 -265 -265 0 -265 0 0 265 0 265
-530 0 -530 0 0 -265z"/>
<path d="M2120 2915 l0 -265 5830 0 5830 0 0 265 0 265 -5830 0 -5830 0 0
-265z"/>
</g>
</svg>
