<?xml version="1.0" standalone="no"?>
<!DOCTYPE svg PUBLIC "-//W3C//DTD SVG 20010904//EN"
 "http://www.w3.org/TR/2001/REC-SVG-20010904/DTD/svg10.dtd">
<svg version="1.0" xmlns="http://www.w3.org/2000/svg"
 width="2048.000000pt" height="663.000000pt" viewBox="0 0 2048.000000 663.000000"
 preserveAspectRatio="xMidYMid meet">

<g transform="translate(0.000000,663.000000) scale(0.100000,-0.100000)"
fill="#000000" stroke="none">
<path d="M4987 6624 c-4 -4 -7 -78 -7 -164 l0 -158 -152 80 c-83 43 -155 75
-158 71 -4 -4 -28 -39 -54 -78 l-46 -70 28 -14 c15 -8 85 -44 155 -81 l128
-67 -33 -20 c-18 -11 -88 -48 -155 -83 l-121 -62 50 -79 c27 -43 51 -79 52
-79 1 0 69 35 151 78 l150 78 5 -160 5 -161 100 0 100 0 3 162 2 162 154 -80
154 -80 44 68 c24 37 47 73 51 79 4 8 -48 40 -143 90 -83 43 -150 81 -150 85
0 4 44 30 98 57 53 28 120 63 149 79 l52 29 -50 77 c-27 42 -50 77 -52 77 -1
0 -70 -35 -152 -78 l-150 -78 -5 160 -5 161 -95 3 c-53 1 -99 0 -103 -4z"/>
<path d="M10730 6472 c0 -87 -2 -161 -5 -164 -3 -3 -74 30 -157 74 l-152 79
-17 -23 c-36 -47 -81 -127 -76 -135 3 -4 71 -42 151 -83 80 -41 146 -77 146
-80 0 -3 -60 -36 -134 -73 -191 -97 -178 -80 -122 -171 26 -42 49 -76 50 -76
2 0 72 36 156 80 84 44 155 80 157 80 1 0 3 -74 3 -165 l0 -166 98 3 97 3 3
162 2 163 155 -81 154 -80 44 68 c24 37 46 73 50 79 4 7 -48 40 -143 90 -83
43 -150 81 -150 84 0 4 50 33 111 65 61 31 128 67 150 79 l38 22 -50 78 -49
78 -155 -81 -155 -80 -2 162 -3 162 -97 3 -98 3 0 -159z"/>
<path d="M19140 6433 c-271 -42 -491 -175 -584 -352 -51 -98 -66 -172 -66
-336 0 -162 15 -275 95 -716 119 -652 155 -951 175 -1459 9 -204 8 -336 -2
-570 -7 -168 -13 -408 -12 -535 1 -253 12 -320 74 -452 105 -224 326 -388 627
-464 295 -74 583 -59 800 41 197 91 259 235 219 509 -18 120 -63 282 -122 435
l-35 93 -105 22 c-234 49 -339 89 -404 154 -244 246 -305 1058 -154 2037 46
301 112 592 220 980 38 133 40 291 5 367 -72 161 -283 254 -571 251 -74 0
-146 -2 -160 -5z"/>
<path d="M522 6070 c-72 -13 -144 -46 -177 -80 -22 -23 -36 -61 -70 -197 -24
-92 -71 -250 -104 -351 -44 -133 -64 -209 -72 -280 -12 -105 -6 -620 11 -887
5 -82 10 -314 10 -515 0 -394 -1 -407 -71 -1080 -36 -340 -43 -440 -43 -625
-1 -240 7 -302 65 -496 39 -134 61 -173 128 -239 144 -141 402 -217 766 -227
679 -18 1396 219 1915 635 117 94 323 298 414 412 334 418 532 923 576 1470
63 770 -316 1587 -918 1981 -173 113 -441 188 -1252 348 -521 102 -713 130
-955 136 -93 2 -194 0 -223 -5z m1434 -1853 c102 -52 192 -169 241 -310 25
-72 28 -96 28 -202 0 -101 -4 -129 -23 -177 -36 -89 -98 -174 -207 -284 -112
-112 -177 -152 -268 -161 -187 -19 -369 231 -384 527 -9 184 42 322 170 457
162 170 307 219 443 150z"/>
<path d="M13133 5875 c-117 -32 -209 -99 -243 -179 -30 -68 -33 -135 -15 -281
29 -227 15 -320 -58 -395 -60 -62 -101 -73 -307 -80 -203 -8 -244 -17 -334
-79 -190 -131 -284 -483 -184 -686 52 -103 104 -138 253 -170 142 -31 224 -90
273 -195 39 -84 42 -232 7 -460 -49 -327 -55 -385 -61 -545 -10 -254 18 -447
101 -700 147 -451 417 -693 883 -797 135 -31 483 -33 612 -4 350 77 580 245
658 481 84 256 13 599 -156 757 -78 73 -123 92 -217 92 -65 -1 -101 -8 -195
-39 -96 -32 -129 -39 -200 -39 -76 -1 -91 2 -138 29 -333 184 -438 992 -168
1292 79 88 181 120 329 102 45 -5 118 -14 162 -19 175 -21 290 29 377 164 111
173 130 466 42 652 -77 163 -210 225 -451 210 -183 -12 -286 18 -349 101 -52
68 -60 130 -39 300 20 162 17 251 -13 308 -43 85 -140 151 -263 180 -79 18
-237 18 -306 0z"/>
<path d="M4962 5210 c-172 -24 -318 -88 -410 -179 -100 -99 -144 -215 -163
-424 -21 -245 18 -594 161 -1427 28 -162 62 -359 75 -436 63 -369 52 -612 -45
-944 -56 -194 -52 -258 23 -327 86 -80 216 -121 408 -130 329 -15 627 106 763
310 19 30 47 90 63 133 24 71 27 93 27 219 0 174 -9 227 -124 695 -140 572
-165 748 -157 1098 6 284 26 403 123 722 33 112 37 137 38 240 1 106 -1 119
-27 171 -79 161 -304 271 -579 283 -62 3 -141 1 -176 -4z"/>
<path d="M10732 5209 c-296 -38 -486 -185 -547 -423 -68 -267 -36 -625 155
-1727 86 -492 91 -537 91 -729 0 -182 -20 -312 -81 -530 -58 -208 -53 -259 30
-334 150 -135 529 -167 809 -67 225 79 367 217 427 417 14 45 19 91 18 194 -1
166 -19 271 -114 645 -149 588 -191 891 -169 1225 14 222 42 368 123 640 72
243 58 382 -49 499 -136 146 -424 225 -693 190z"/>
<path d="M16245 5204 c-127 -17 -262 -51 -390 -99 -142 -52 -387 -173 -481
-235 -113 -76 -224 -191 -265 -276 -32 -65 -34 -75 -34 -174 1 -85 5 -116 23
-162 67 -167 232 -332 433 -433 111 -56 188 -78 274 -78 114 0 141 21 204 156
49 107 122 184 226 239 96 49 165 68 254 68 123 -1 194 -46 248 -160 23 -46
27 -69 28 -141 0 -78 -3 -90 -30 -135 -61 -98 -157 -123 -470 -124 -440 -1
-654 -73 -860 -292 -193 -204 -298 -514 -267 -787 45 -396 309 -762 635 -883
65 -24 104 -32 183 -36 130 -6 227 13 399 79 312 120 354 133 445 133 132 1
199 -37 281 -155 64 -95 184 -167 344 -210 103 -27 288 -29 390 -5 180 43 336
166 413 326 122 252 99 571 -49 704 -66 59 -114 70 -235 56 -132 -16 -184 2
-223 77 -39 75 13 434 141 973 41 172 42 178 42 360 0 203 -12 292 -65 455
-106 331 -342 568 -673 679 -245 82 -651 117 -921 80z m326 -2224 c45 -13 84
-53 104 -109 32 -93 11 -190 -61 -270 -148 -165 -412 -137 -500 54 -37 77 -28
130 28 181 53 49 301 149 378 153 8 1 31 -4 51 -9z"/>
<path d="M8163 5088 c-127 -8 -272 -29 -473 -69 -416 -81 -666 -171 -891 -320
-115 -77 -304 -263 -374 -369 -107 -161 -185 -356 -222 -552 -25 -132 -25
-507 1 -668 25 -162 92 -488 123 -595 32 -115 107 -273 166 -351 123 -161 317
-263 562 -293 120 -15 234 -14 450 4 215 18 385 19 457 4 161 -34 238 -131
238 -298 0 -182 -90 -354 -236 -454 -102 -70 -195 -100 -325 -105 -137 -5
-193 10 -296 83 -240 169 -312 211 -498 286 -203 81 -383 34 -565 -150 -208
-210 -251 -459 -114 -658 169 -245 688 -497 1151 -558 138 -18 410 -21 538 -5
369 45 709 191 964 413 240 210 389 468 574 998 202 574 333 1128 389 1644 19
179 17 630 -5 775 -102 689 -445 1088 -1037 1209 -100 20 -365 44 -440 38 -19
-1 -81 -5 -137 -9z m-192 -1132 c174 -37 301 -141 386 -316 74 -152 95 -220
101 -327 4 -86 3 -94 -24 -144 -56 -103 -176 -154 -359 -153 -267 1 -479 124
-588 343 -76 152 -99 329 -53 423 39 81 148 156 257 177 69 14 208 12 280 -3z"/>
</g>
</svg>
