<?xml version="1.0" standalone="no"?>
<!DOCTYPE svg PUBLIC "-//W3C//DTD SVG 20010904//EN"
 "http://www.w3.org/TR/2001/REC-SVG-20010904/DTD/svg10.dtd">
<svg version="1.0" xmlns="http://www.w3.org/2000/svg"
 width="1590.000000pt" height="1590.000000pt" viewBox="0 0 1590.000000 1590.000000"
 preserveAspectRatio="xMidYMid meet">

<g transform="translate(0.000000,1590.000000) scale(0.100000,-0.100000)"
fill="#000000" stroke="none">
<path d="M1060 7420 l0 -4770 6890 0 6890 0 0 4770 0 4770 -6890 0 -6890 0 0
-4770z m1060 3975 l0 -265 265 0 265 0 0 265 0 265 5300 0 5300 0 0 -265 0
-265 265 0 265 0 0 265 0 265 265 0 265 0 0 -3975 0 -3975 -265 0 -265 0 0
-265 0 -265 -5830 0 -5830 0 0 265 0 265 -265 0 -265 0 0 3975 0 3975 265 0
265 0 0 -265z"/>
<path d="M2650 10865 l0 -265 265 0 265 0 0 -265 0 -265 265 0 265 0 0 -265 0
-265 265 0 265 0 0 -265 0 -265 265 0 265 0 0 -265 0 -265 265 0 265 0 0 -265
0 -265 265 0 265 0 0 -265 0 -265 -265 0 -265 0 0 -265 0 -265 -265 0 -265 0
0 -265 0 -265 -265 0 -265 0 0 -265 0 -265 -265 0 -265 0 0 -265 0 -265 -265
0 -265 0 0 -265 0 -265 -265 0 -265 0 0 -265 0 -265 -265 0 -265 0 0 -265 0
-265 265 0 265 0 0 265 0 265 265 0 265 0 0 265 0 265 265 0 265 0 0 265 0
265 265 0 265 0 0 265 0 265 265 0 265 0 0 265 0 265 265 0 265 0 0 265 0 265
265 0 265 0 0 265 0 265 265 0 265 0 0 -265 0 -265 265 0 265 0 0 -265 0 -265
265 0 265 0 0 -265 0 -265 530 0 530 0 0 265 0 265 265 0 265 0 0 265 0 265
265 0 265 0 0 265 0 265 265 0 265 0 0 -265 0 -265 265 0 265 0 0 -265 0 -265
265 0 265 0 0 -265 0 -265 265 0 265 0 0 -265 0 -265 265 0 265 0 0 -265 0
-265 265 0 265 0 0 -265 0 -265 265 0 265 0 0 -265 0 -265 265 0 265 0 0 265
0 265 -265 0 -265 0 0 265 0 265 -265 0 -265 0 0 265 0 265 -265 0 -265 0 0
265 0 265 -265 0 -265 0 0 265 0 265 -265 0 -265 0 0 265 0 265 -265 0 -265 0
0 265 0 265 -265 0 -265 0 0 265 0 265 265 0 265 0 0 265 0 265 265 0 265 0 0
265 0 265 265 0 265 0 0 265 0 265 265 0 265 0 0 265 0 265 265 0 265 0 0 265
0 265 265 0 265 0 0 265 0 265 -265 0 -265 0 0 -265 0 -265 -265 0 -265 0 0
-265 0 -265 -265 0 -265 0 0 -265 0 -265 -265 0 -265 0 0 -265 0 -265 -265 0
-265 0 0 -265 0 -265 -265 0 -265 0 0 -265 0 -265 -265 0 -265 0 0 -265 0
-265 -265 0 -265 0 0 -265 0 -265 -265 0 -265 0 0 -265 0 -265 -530 0 -530 0
0 265 0 265 -265 0 -265 0 0 265 0 265 -265 0 -265 0 0 265 0 265 -265 0 -265
0 0 265 0 265 -265 0 -265 0 0 265 0 265 -265 0 -265 0 0 265 0 265 -265 0
-265 0 0 265 0 265 -265 0 -265 0 0 265 0 265 -265 0 -265 0 0 265 0 265 -265
0 -265 0 0 -265z"/>
</g>
</svg>
