<?xml version="1.0" standalone="no"?>
<!DOCTYPE svg PUBLIC "-//W3C//DTD SVG 20010904//EN"
 "http://www.w3.org/TR/2001/REC-SVG-20010904/DTD/svg10.dtd">
<svg version="1.0" xmlns="http://www.w3.org/2000/svg"
 width="2048.000000pt" height="417.000000pt" viewBox="0 0 2048.000000 417.000000"
 preserveAspectRatio="xMidYMid meet">

<g transform="translate(0.000000,417.000000) scale(0.100000,-0.100000)"
fill="#000000" stroke="none">
<path d="M14770 4065 c0 -58 -3 -105 -7 -105 -3 0 -49 23 -101 50 -52 28 -95
50 -97 48 -26 -36 -66 -100 -63 -103 1 -1 47 -26 101 -55 71 -38 95 -55 85
-62 -7 -5 -52 -29 -101 -54 l-87 -44 14 -28 c8 -15 23 -39 33 -54 l18 -26 102
52 102 53 3 -106 3 -106 68 -3 67 -3 0 110 0 110 103 -54 104 -55 31 51 c18
28 32 52 32 55 0 2 -26 17 -57 33 -32 16 -78 40 -102 54 l-44 25 89 46 c129
66 122 56 84 115 -18 29 -35 50 -39 49 -3 -2 -48 -25 -98 -51 -51 -26 -95 -47
-98 -47 -3 0 -5 47 -5 105 l0 105 -70 0 -70 0 0 -105z"/>
<path d="M10835 4050 c-118 -21 -195 -66 -215 -124 -9 -27 -7 -52 12 -137 32
-148 31 -363 -3 -498 l-24 -95 -185 0 c-149 -1 -199 -5 -255 -20 -329 -89
-546 -292 -701 -654 -93 -218 -128 -382 -128 -607 0 -235 33 -375 145 -613
116 -248 242 -373 410 -408 112 -23 240 -3 443 70 121 44 238 70 287 63 67 -9
123 -49 152 -110 31 -65 91 -119 166 -149 46 -18 77 -22 176 -23 114 0 123 2
186 31 90 43 122 85 127 168 4 56 -3 83 -67 272 -92 275 -114 380 -115 554 0
127 3 149 52 365 118 527 204 1099 205 1360 2 270 -55 389 -230 483 -116 62
-314 94 -438 72z m-379 -1685 c182 -107 175 -424 -12 -485 -24 -8 -69 -11
-128 -7 -162 10 -308 64 -341 127 -47 91 24 235 161 326 118 77 231 91 320 39z"/>
<path d="M1185 3719 c-238 -41 -500 -151 -675 -283 -152 -114 -291 -279 -373
-441 -39 -78 -85 -216 -109 -328 -32 -148 -32 -407 0 -564 119 -593 519 -984
1069 -1044 185 -20 374 16 558 106 140 68 245 146 371 278 360 373 457 812
299 1355 -60 206 -137 380 -231 524 -59 91 -230 262 -306 307 -182 106 -358
133 -603 90z m180 -966 c133 -46 223 -154 240 -288 14 -117 -46 -267 -145
-358 -212 -196 -462 -151 -552 101 -41 113 -31 278 22 383 78 152 264 222 435
162z"/>
<path d="M3345 3619 c-249 -23 -460 -127 -543 -268 -41 -69 -42 -166 -4 -371
61 -326 66 -381 66 -705 1 -333 -8 -435 -69 -782 -69 -388 -78 -456 -78 -583
-1 -143 15 -218 65 -312 45 -85 153 -197 230 -239 57 -31 71 -34 143 -34 70 0
89 4 146 32 79 39 160 120 195 196 53 116 42 243 -43 522 -104 342 -80 384
192 335 308 -54 559 -30 775 76 215 106 371 333 425 619 22 112 22 308 1 427
-97 542 -489 935 -1056 1059 -78 17 -297 41 -340 37 -8 0 -55 -4 -105 -9z
m540 -818 c65 -32 163 -133 198 -204 55 -112 52 -258 -6 -382 -44 -91 -76
-128 -139 -159 -102 -51 -245 -28 -320 51 -88 92 -132 228 -132 403 0 238 73
323 269 317 61 -2 92 -8 130 -26z"/>
<path d="M5526 3529 c-125 -16 -239 -86 -252 -154 -3 -17 0 -56 6 -86 7 -31
15 -214 20 -429 4 -206 17 -517 29 -690 33 -503 30 -567 -41 -852 -48 -191
-46 -217 19 -289 154 -170 653 -189 761 -29 28 41 27 73 -9 225 -20 88 -23
126 -22 310 0 362 55 682 186 1080 42 130 58 166 87 196 43 45 134 76 253 85
110 8 139 18 181 64 105 117 145 322 84 432 -46 85 -142 122 -308 120 -221 -2
-363 -66 -497 -225 -43 -51 -67 -40 -76 33 -9 74 -34 119 -86 152 -83 52 -207
73 -335 57z"/>
<path d="M14700 3420 c-128 -20 -244 -84 -297 -163 -49 -73 -64 -136 -70 -283
-7 -175 11 -335 102 -879 40 -242 76 -474 80 -516 8 -96 -9 -255 -41 -373 -47
-174 -50 -199 -27 -242 15 -30 35 -47 84 -72 84 -42 160 -55 289 -49 310 15
499 181 500 437 0 85 -25 217 -89 477 -69 277 -88 381 -102 554 -16 205 10
425 77 634 14 44 28 114 31 155 9 125 -38 205 -156 264 -97 50 -265 74 -381
56z"/>
<path d="M19305 3388 c-132 -14 -423 -76 -531 -113 -369 -123 -590 -347 -681
-690 -23 -90 -26 -117 -26 -275 0 -184 11 -270 69 -530 69 -308 188 -453 424
-517 55 -15 95 -17 255 -14 429 10 455 9 503 -19 27 -15 54 -42 69 -68 23 -39
25 -51 21 -125 -4 -63 -11 -96 -33 -141 -72 -151 -243 -238 -418 -212 -44 7
-74 23 -228 127 -46 31 -129 76 -184 100 -83 35 -110 42 -163 42 -126 -1 -274
-108 -343 -249 -30 -61 -34 -78 -34 -149 0 -70 4 -87 29 -133 132 -238 659
-446 1056 -417 334 23 591 135 791 342 147 153 230 314 358 701 105 315 177
614 217 902 25 174 25 539 1 666 -24 131 -62 246 -115 349 -60 114 -191 252
-296 310 -192 106 -451 146 -741 113z m-47 -748 c62 -15 123 -46 171 -87 51
-43 134 -206 152 -300 28 -140 -47 -226 -210 -240 -244 -20 -439 128 -482 366
-16 93 -3 141 55 197 67 64 197 91 314 64z"/>
<path d="M7225 3357 c-113 -30 -178 -84 -189 -159 -29 -195 188 -824 601
-1746 122 -273 131 -299 139 -413 l7 -86 -37 -40 c-57 -63 -89 -75 -177 -63
-41 5 -99 16 -129 25 -76 21 -138 19 -177 -5 -106 -64 -160 -345 -92 -477 21
-39 36 -53 83 -78 167 -85 518 -14 786 160 207 134 455 418 588 674 93 180
142 317 293 820 211 704 252 871 251 1036 0 222 -109 337 -332 352 -137 9
-294 -47 -366 -131 -50 -58 -71 -140 -94 -364 -43 -419 -120 -732 -199 -811
-54 -54 -138 4 -210 148 -83 165 -127 348 -160 677 -23 216 -36 275 -74 333
-32 48 -115 103 -198 131 -80 28 -240 36 -314 17z"/>
<path d="M12137 3256 c-68 -19 -128 -63 -154 -116 -20 -38 -23 -60 -23 -152 0
-59 4 -162 10 -230 38 -465 51 -1236 24 -1435 -24 -181 -4 -264 77 -317 123
-82 389 -78 530 7 79 48 89 66 96 182 7 128 -9 309 -52 574 -45 276 -50 343
-36 426 19 109 69 250 104 297 64 84 185 117 303 83 135 -39 215 -106 233
-197 51 -254 37 -709 -27 -886 -24 -67 -27 -91 -26 -187 2 -181 45 -270 157
-325 123 -60 289 -62 419 -3 61 27 130 92 149 141 18 44 13 156 -15 317 -52
302 -55 564 -9 810 49 268 -6 503 -157 668 -179 195 -574 354 -787 317 -93
-16 -153 -52 -232 -136 -36 -39 -78 -79 -93 -89 -42 -27 -70 -3 -99 82 -41
126 -130 184 -278 182 -36 0 -88 -6 -114 -13z"/>
<path d="M15923 3256 c-116 -38 -171 -100 -180 -205 -3 -31 2 -163 11 -291 36
-523 53 -1145 36 -1315 -29 -302 -26 -345 31 -410 99 -112 419 -119 580 -12
71 46 73 54 77 214 4 166 -5 268 -54 568 -47 286 -45 386 10 544 51 147 72
175 165 219 47 21 63 24 125 19 116 -9 242 -70 284 -139 42 -68 70 -407 52
-633 -13 -176 -24 -241 -57 -335 -52 -152 -26 -353 58 -445 95 -103 304 -132
479 -66 74 28 128 74 156 135 30 65 30 113 -1 299 -13 81 -30 198 -36 259 -16
149 -6 428 21 583 24 144 25 235 4 346 -52 278 -256 473 -619 595 -187 62
-322 66 -434 12 -26 -13 -82 -59 -131 -109 -47 -48 -95 -90 -107 -94 -31 -9
-58 21 -77 86 -36 125 -116 181 -265 186 -54 2 -102 -2 -128 -11z"/>
</g>
</svg>
