<?xml version="1.0" standalone="no"?>
<!DOCTYPE svg PUBLIC "-//W3C//DTD SVG 20010904//EN"
 "http://www.w3.org/TR/2001/REC-SVG-20010904/DTD/svg10.dtd">
<svg version="1.0" xmlns="http://www.w3.org/2000/svg"
 width="2048.000000pt" height="432.000000pt" viewBox="0 0 2048.000000 432.000000"
 preserveAspectRatio="xMidYMid meet">

<g transform="translate(0.000000,432.000000) scale(0.100000,-0.100000)"
fill="#000000" stroke="none">
<path d="M2591 4120 c-122 -19 -222 -77 -253 -146 -27 -62 -33 -203 -19 -477
17 -338 52 -605 108 -828 35 -140 41 -298 18 -456 -9 -65 -46 -266 -82 -448
-73 -372 -79 -442 -44 -498 31 -51 99 -95 190 -125 62 -20 97 -24 186 -24 144
0 226 24 290 86 43 40 45 45 45 98 0 30 -9 97 -20 149 -38 182 -35 459 5 556
14 33 17 35 31 21 8 -8 35 -93 59 -189 70 -284 135 -420 259 -544 129 -129
306 -196 521 -198 299 -4 442 111 346 279 -16 27 -86 111 -156 185 -160 168
-245 267 -292 338 -173 260 -184 510 -33 761 59 99 120 173 286 350 147 157
184 213 184 282 0 41 -5 52 -34 82 -60 59 -115 71 -321 70 -145 0 -198 -4
-275 -21 -195 -44 -276 -89 -317 -180 -25 -54 -25 -60 -19 -184 l7 -128 -25
-16 c-64 -42 -224 44 -278 149 -49 96 -33 200 68 452 97 243 110 333 64 425
-22 42 -85 101 -138 128 -86 44 -254 68 -361 51z"/>
<path d="M10750 4119 c-79 -13 -161 -57 -184 -97 -18 -32 -18 -35 4 -147 19
-97 22 -136 17 -252 -3 -89 -12 -163 -24 -208 l-19 -70 -139 3 c-220 6 -366
-34 -528 -141 -267 -178 -455 -552 -483 -960 -12 -180 23 -364 106 -556 98
-227 182 -336 303 -396 132 -65 227 -60 487 26 267 88 349 78 415 -50 30 -59
56 -83 130 -118 54 -25 70 -28 170 -28 94 0 118 3 161 23 93 42 141 116 128
196 -3 17 -32 110 -65 206 -82 243 -102 344 -102 505 -1 121 3 146 50 355 130
571 209 1192 174 1372 -27 132 -91 217 -212 278 -106 54 -273 80 -389 59z
m-354 -1518 c138 -63 181 -294 73 -402 -64 -64 -160 -73 -324 -30 -88 22 -126
42 -159 81 -52 62 -21 166 77 258 108 102 236 137 333 93z"/>
<path d="M15150 4124 c-98 -17 -154 -39 -191 -74 -46 -44 -47 -53 -18 -193 17
-85 20 -124 16 -232 -3 -71 -10 -146 -16 -165 -5 -19 -14 -53 -20 -75 l-10
-40 -168 0 c-178 0 -230 -9 -355 -59 -104 -42 -171 -89 -273 -191 -112 -112
-169 -199 -240 -369 -129 -308 -150 -620 -60 -904 14 -43 57 -144 97 -222 61
-124 81 -154 142 -215 156 -157 280 -170 603 -64 258 85 344 77 405 -36 34
-63 96 -119 156 -140 114 -40 280 -28 362 27 93 63 102 134 39 315 -109 315
-123 382 -123 568 0 131 3 153 48 349 26 116 65 314 87 440 133 785 130 998
-16 1140 -52 51 -142 98 -229 121 -63 16 -194 26 -236 19z m-358 -1540 c28
-20 53 -50 73 -89 26 -50 30 -70 30 -134 0 -65 -4 -83 -28 -124 -53 -89 -152
-114 -313 -79 -176 39 -228 82 -221 179 7 96 113 215 234 264 74 29 169 23
225 -17z"/>
<path d="M8432 3980 c-152 -40 -259 -124 -303 -238 -30 -79 -29 -229 4 -417
135 -759 132 -729 132 -1370 1 -519 1 -531 23 -589 30 -81 52 -114 122 -180
114 -109 294 -171 495 -170 187 1 313 48 370 139 28 46 30 54 29 149 -1 104
-24 203 -77 335 l-22 54 -100 22 c-122 28 -188 57 -219 99 -97 128 -132 337
-123 716 9 377 49 625 177 1099 54 201 -8 310 -202 356 -87 20 -217 18 -306
-5z"/>
<path d="M4715 3514 c-104 -16 -194 -65 -220 -120 -13 -28 -14 -42 -5 -86 7
-29 15 -213 20 -408 4 -195 15 -463 24 -595 31 -454 25 -591 -40 -815 -27 -95
-30 -159 -10 -198 58 -111 238 -178 451 -169 126 5 207 30 255 78 42 43 45 79
15 178 -33 110 -79 342 -101 506 -13 91 -18 197 -18 355 0 253 17 367 76 508
58 140 172 255 284 288 68 19 112 11 172 -32 26 -19 62 -41 80 -50 31 -14 37
-14 70 4 21 10 54 43 75 73 82 117 101 286 41 372 -60 84 -201 118 -355 83
-122 -27 -189 -65 -295 -167 -112 -108 -125 -110 -137 -24 -5 33 -11 71 -14
85 -7 38 -73 94 -134 113 -55 18 -180 29 -234 21z"/>
<path d="M987 3415 c-285 -54 -478 -222 -558 -485 -26 -88 -31 -225 -10 -310
32 -131 129 -288 219 -353 61 -45 83 -56 270 -133 195 -81 421 -196 461 -233
36 -34 33 -58 -14 -100 -51 -45 -137 -73 -225 -73 -122 0 -178 32 -264 152
-70 97 -114 137 -162 146 -100 19 -229 -33 -328 -131 -77 -76 -116 -148 -123
-225 -11 -121 63 -197 310 -319 265 -131 500 -174 747 -136 132 20 258 58 370
112 163 78 282 221 338 404 73 237 14 423 -181 570 -81 61 -282 165 -445 229
-144 57 -182 96 -168 178 10 66 71 121 118 106 12 -3 55 -38 95 -76 92 -87
146 -112 224 -105 85 7 180 58 259 137 79 80 113 143 118 227 4 53 0 68 -24
113 -16 29 -51 72 -79 97 -73 65 -247 147 -390 184 -109 29 -137 32 -300 35
-129 2 -202 -1 -258 -11z"/>
<path d="M12421 3395 c-214 -47 -381 -143 -539 -310 -297 -313 -385 -725 -247
-1145 48 -144 167 -322 307 -456 218 -209 454 -308 764 -321 358 -15 651 96
710 268 24 70 24 224 0 288 -46 123 -167 202 -309 202 -28 0 -115 -16 -192
-36 -148 -39 -321 -55 -419 -41 -82 13 -156 97 -156 178 1 84 62 95 320 57
178 -26 478 -31 648 -10 l114 14 20 46 c11 25 32 89 46 141 24 86 27 110 26
265 0 155 -3 178 -27 258 -86 281 -273 480 -532 566 -49 16 -119 35 -155 40
-90 15 -302 12 -379 -4z m291 -591 c44 -23 80 -79 85 -132 6 -63 -19 -87 -113
-107 -173 -37 -246 -10 -246 90 0 129 152 211 274 149z"/>
<path d="M6686 3255 c-105 -22 -190 -52 -321 -115 -305 -145 -396 -298 -294
-491 88 -165 357 -312 467 -255 23 12 40 34 60 79 52 113 167 187 291 187 70
0 114 -26 144 -84 42 -81 28 -173 -33 -218 -32 -23 -141 -37 -295 -38 -221 -1
-341 -44 -460 -164 -81 -82 -125 -164 -157 -289 -59 -234 43 -509 247 -662 88
-66 152 -88 255 -89 89 0 79 -3 359 99 87 31 172 36 220 11 17 -9 48 -38 69
-65 74 -96 171 -141 319 -149 163 -8 285 49 363 169 41 63 70 164 70 241 0 63
-27 157 -56 195 -41 54 -76 66 -161 59 -82 -8 -126 7 -139 46 -19 58 4 225 72
528 42 189 50 278 35 395 -30 220 -124 386 -279 489 -140 93 -271 126 -527
131 -131 3 -199 1 -249 -10z m276 -1346 c43 -23 62 -123 34 -178 -67 -128
-253 -144 -325 -27 -49 79 -19 126 114 182 82 34 141 42 177 23z"/>
<path d="M16625 3254 c-217 -36 -524 -187 -609 -299 -67 -87 -82 -173 -47
-265 57 -149 255 -298 408 -308 81 -5 103 9 142 92 34 71 76 113 154 153 68
36 186 40 229 8 69 -52 97 -180 52 -242 -41 -56 -80 -66 -294 -74 -127 -5
-216 -13 -254 -24 -295 -80 -476 -408 -396 -719 67 -263 285 -467 497 -466 79
1 123 12 277 72 219 85 296 78 381 -33 79 -104 250 -163 403 -139 182 29 300
146 333 331 22 126 -17 267 -88 315 -23 16 -44 19 -120 17 -85 -3 -94 -1 -120
21 -27 23 -28 28 -26 103 2 80 44 316 90 503 35 140 36 324 4 445 -45 172
-153 324 -285 404 -165 99 -490 146 -731 105z m253 -1350 c78 -55 63 -186 -30
-250 -35 -25 -51 -29 -109 -29 -53 0 -74 5 -96 21 -69 51 -94 133 -52 175 35
35 186 97 239 98 14 1 36 -6 48 -15z"/>
<path d="M19215 3159 c-38 -5 -137 -23 -220 -40 -431 -87 -658 -234 -796 -515
-110 -224 -119 -459 -33 -865 55 -261 125 -379 271 -457 111 -59 152 -64 476
-60 280 3 294 2 332 -18 60 -31 88 -91 82 -175 -5 -75 -38 -156 -85 -210 -69
-78 -217 -129 -320 -109 -64 12 -78 19 -167 86 -77 57 -210 126 -293 150 -96
28 -210 -14 -303 -113 -73 -78 -104 -149 -104 -243 1 -87 14 -118 84 -193 138
-148 428 -269 712 -298 386 -39 765 110 971 380 131 173 302 631 397 1067 173
798 50 1331 -354 1530 -138 68 -220 86 -415 89 -91 2 -196 -1 -235 -6z m42
-698 c31 -14 71 -44 99 -73 77 -82 144 -254 131 -334 -18 -112 -160 -167 -331
-130 -141 32 -243 126 -287 265 -46 150 -5 245 123 287 65 21 200 13 265 -15z"/>
</g>
</svg>
