<?xml version="1.0" standalone="no"?>
<!DOCTYPE svg PUBLIC "-//W3C//DTD SVG 20010904//EN"
 "http://www.w3.org/TR/2001/REC-SVG-20010904/DTD/svg10.dtd">
<svg version="1.0" xmlns="http://www.w3.org/2000/svg"
 width="1590.000000pt" height="1590.000000pt" viewBox="0 0 1590.000000 1590.000000"
 preserveAspectRatio="xMidYMid meet">

<g transform="translate(0.000000,1590.000000) scale(0.100000,-0.100000)"
fill="#000000" stroke="none">
<path d="M3710 14575 l0 -265 -265 0 -265 0 0 -6360 0 -6360 265 0 265 0 0
-265 0 -265 3180 0 3180 0 0 265 0 265 265 0 265 0 0 6360 0 6360 -265 0 -265
0 0 265 0 265 -3180 0 -3180 0 0 -265z m6360 -6625 l0 -6360 -3180 0 -3180 0
0 6360 0 6360 3180 0 3180 0 0 -6360z"/>
<path d="M5830 13515 l0 -265 265 0 265 0 0 265 0 265 -265 0 -265 0 0 -265z"/>
<path d="M6890 13515 l0 -265 530 0 530 0 0 265 0 265 -530 0 -530 0 0 -265z"/>
<path d="M4770 12455 l0 -265 -265 0 -265 0 0 -3975 0 -3975 265 0 265 0 0
-265 0 -265 2120 0 2120 0 0 265 0 265 265 0 265 0 0 3975 0 3975 -265 0 -265
0 0 265 0 265 -2120 0 -2120 0 0 -265z m4240 -4240 l0 -3975 -2120 0 -2120 0
0 3975 0 3975 2120 0 2120 0 0 -3975z"/>
<path d="M6360 2650 l0 -530 530 0 530 0 0 530 0 530 -530 0 -530 0 0 -530z"/>
</g>
</svg>
