<?xml version="1.0" standalone="no"?>
<!DOCTYPE svg PUBLIC "-//W3C//DTD SVG 20010904//EN"
 "http://www.w3.org/TR/2001/REC-SVG-20010904/DTD/svg10.dtd">
<svg version="1.0" xmlns="http://www.w3.org/2000/svg"
 width="1590.000000pt" height="1590.000000pt" viewBox="0 0 1590.000000 1590.000000"
 preserveAspectRatio="xMidYMid meet">

<g transform="translate(0.000000,1590.000000) scale(0.100000,-0.100000)"
fill="#000000" stroke="none">
<path d="M5830 13515 l0 -265 -530 0 -530 0 0 -265 0 -265 -265 0 -265 0 0
-265 0 -265 -530 0 -530 0 0 -530 0 -530 -265 0 -265 0 0 -265 0 -265 -265 0
-265 0 0 -530 0 -530 -265 0 -265 0 0 -1855 0 -1855 265 0 265 0 0 -530 0
-530 265 0 265 0 0 -265 0 -265 265 0 265 0 0 -530 0 -530 530 0 530 0 0 -265
0 -265 265 0 265 0 0 -265 0 -265 265 0 265 0 0 -265 0 -265 2385 0 2385 0 0
265 0 265 265 0 265 0 0 265 0 265 265 0 265 0 0 265 0 265 530 0 530 0 0 530
0 530 265 0 265 0 0 265 0 265 265 0 265 0 0 530 0 530 265 0 265 0 0 1855 0
1855 -265 0 -265 0 0 530 0 530 -265 0 -265 0 0 265 0 265 -265 0 -265 0 0
530 0 530 -530 0 -530 0 0 265 0 265 -265 0 -265 0 0 265 0 265 -530 0 -530 0
0 265 0 265 -1855 0 -1855 0 0 -265z m3710 -530 l0 -265 530 0 530 0 0 -265 0
-265 265 0 265 0 0 -265 0 -265 265 0 265 0 0 -265 0 -265 265 0 265 0 0 -265
0 -265 265 0 265 0 0 -530 0 -530 265 0 265 0 0 -1855 0 -1855 -265 0 -265 0
0 -530 0 -530 -265 0 -265 0 0 -265 0 -265 -265 0 -265 0 0 -265 0 -265 -265
0 -265 0 0 -265 0 -265 -265 0 -265 0 0 -265 0 -265 -530 0 -530 0 0 -265 0
-265 -1855 0 -1855 0 0 265 0 265 -530 0 -530 0 0 265 0 265 -265 0 -265 0 0
265 0 265 -265 0 -265 0 0 265 0 265 -265 0 -265 0 0 265 0 265 -265 0 -265 0
0 530 0 530 -265 0 -265 0 0 1855 0 1855 265 0 265 0 0 530 0 530 265 0 265 0
0 265 0 265 265 0 265 0 0 265 0 265 265 0 265 0 0 265 0 265 265 0 265 0 0
265 0 265 530 0 530 0 0 265 0 265 1855 0 1855 0 0 -265z"/>
<path d="M7420 11925 l0 -795 265 0 265 0 0 795 0 795 -265 0 -265 0 0 -795z"/>
<path d="M5300 11395 l0 -265 265 0 265 0 0 265 0 265 -265 0 -265 0 0 -265z"/>
<path d="M9540 11395 l0 -265 265 0 265 0 0 265 0 265 -265 0 -265 0 0 -265z"/>
<path d="M3710 9805 l0 -265 265 0 265 0 0 265 0 265 -265 0 -265 0 0 -265z"/>
<path d="M5300 9805 l0 -265 265 0 265 0 0 -265 0 -265 265 0 265 0 0 -265 0
-265 265 0 265 0 0 -265 0 -265 265 0 265 0 0 -265 0 -265 1060 0 1060 0 0
265 0 265 -1060 0 -1060 0 0 265 0 265 -265 0 -265 0 0 265 0 265 -265 0 -265
0 0 265 0 265 -265 0 -265 0 0 265 0 265 -265 0 -265 0 0 -265z"/>
<path d="M11130 9805 l0 -265 265 0 265 0 0 265 0 265 -265 0 -265 0 0 -265z"/>
<path d="M2650 7685 l0 -265 795 0 795 0 0 265 0 265 -795 0 -795 0 0 -265z"/>
<path d="M11130 7685 l0 -265 795 0 795 0 0 265 0 265 -795 0 -795 0 0 -265z"/>
<path d="M3710 5565 l0 -265 265 0 265 0 0 265 0 265 -265 0 -265 0 0 -265z"/>
<path d="M11130 5565 l0 -265 265 0 265 0 0 265 0 265 -265 0 -265 0 0 -265z"/>
<path d="M5300 3975 l0 -265 265 0 265 0 0 265 0 265 -265 0 -265 0 0 -265z"/>
<path d="M7420 3445 l0 -795 265 0 265 0 0 795 0 795 -265 0 -265 0 0 -795z"/>
<path d="M9540 3975 l0 -265 265 0 265 0 0 265 0 265 -265 0 -265 0 0 -265z"/>
</g>
</svg>
