<svg width="501" height="163" viewBox="0 0 501 163" fill="none" xmlns="http://www.w3.org/2000/svg">
<path d="M316.144 21.1281C311.73 26.2144 318.002 34.4414 313.523 39.3464C309.569 43.6727 303.094 39.0079 297.384 43.6446C292.353 47.7293 290.778 56.7107 293.955 61.4527C296.653 65.4799 300.633 63.2507 304.243 66.5699C311.679 73.4077 300.847 88.4318 306.26 108.122C307.395 112.253 309.469 119.792 315.944 125.111C328.498 135.427 352.604 133.288 358.712 121.222C362.461 113.817 359.754 102.03 353.669 98.9104C348.151 96.0815 343.474 102.237 337.933 99.7294C328.872 95.6292 326.502 72.4413 334.704 66.3648C340.184 62.3068 346.93 68.438 352.457 63.9081C358.01 59.3584 358.533 47.1661 353.467 42.4156C348.387 37.6524 340.395 42.9044 336.319 38.1173C332.376 33.4862 338.06 26.4686 334.099 21.5369C330.36 16.8805 320.057 16.6206 316.144 21.1281Z" fill="#FBF8F2"/>
<path d="M110.958 39.6899C118.089 32.6756 134.492 34.2348 138.929 41.1655C141.59 45.3206 139.573 50.8147 138.561 54.0794C128.503 86.5425 151.921 111.143 139.298 124.188C131.534 132.211 114.712 131.134 111.326 125.663C109.622 122.911 111.891 119.967 113.166 112.749C114.723 103.936 113.191 97.8638 111.695 89.1342C106.787 60.5154 104.334 46.2054 110.958 39.6899Z" fill="#FBF8F2"/>
<path d="M456.825 9.7715C464.974 2.9865 480.201 3.72972 484.611 9.7715C487.386 13.5725 485.634 19.1355 484.611 22.6707C476.034 52.3117 475.185 89.7635 485.342 95.2778C488.106 96.7781 495.945 98.227 495.945 98.227C496.002 98.4803 502.859 113.324 498.871 119.972C494.105 127.913 471.487 128.124 462.311 117.023C456.898 110.475 457.827 102.003 458.289 94.1727C461.382 41.8343 443.506 20.8613 456.827 9.7715H456.825Z" fill="#FBF8F2"/>
<path d="M443.803 100.371C440.333 97.9507 436.46 101.277 433.844 98.751C432.255 97.2185 432.114 94.4788 435.47 78.9099C437.326 70.2947 437.321 71.3617 437.502 69.7987C437.767 67.5202 439.357 53.8798 430.389 44.2892C423.567 36.9938 414.374 36.0394 408.031 35.3808C397.436 34.2805 389.429 37.2009 386.894 38.2151C381.157 40.5075 368.476 45.5785 368.194 54.4119C367.879 64.3303 383.368 73.5527 388.926 70.6087C391.357 69.3222 390.468 66.4601 394.007 63.3203C397.467 60.2498 403.614 58.2867 407.014 60.8903C409.428 62.7381 410.825 67.1645 409.25 70.203C405.699 77.0552 390.857 69.4875 379.372 77.8971C373.016 82.55 369.747 90.59 369.819 97.7381C369.933 109.085 378.486 120.224 387.909 122.033C398.701 124.105 407.693 113.37 415.144 118.186C417.512 119.717 416.85 120.962 419.616 123.045C425.435 127.43 437.106 128.508 443.396 121.425C449.211 114.878 448.435 103.6 443.802 100.37L443.803 100.371ZM407.957 94.7539C407.91 97.9229 405.293 100.593 402.424 101.446C402.053 101.556 398.496 102.549 395.707 100.265C394.459 99.2428 392.768 97.0754 393.336 94.9511C393.821 93.1353 395.686 92.3642 398.473 91.2111C401.442 89.9829 404.021 88.9159 405.981 90.2274C407.963 91.5528 407.961 94.4079 407.957 94.7539Z" fill="#FBF8F2"/>
<path d="M226.847 44.3078C214.029 34.4787 195.51 38.1655 188.214 39.6178C179.981 41.2562 165.896 44.0601 157.47 56.5406C148.734 69.4773 151.633 84.5854 153.02 91.8135C154.73 100.726 156.094 107.835 161.92 112.611C174.534 122.949 194.454 111.185 199.744 119.746C202.064 123.502 200.296 129.111 198.125 132.183C194.893 136.761 188.645 138.719 183.764 137.689C179.088 136.701 178.607 133.592 170.414 129.941C166.955 128.4 165.226 127.629 163.133 127.698C156.318 127.922 148.989 135.727 149.176 142.786C149.425 152.121 162.745 157.389 167.583 159.302C182.259 165.106 202.778 164.223 216.329 151.758C221.473 147.027 224.8 141.373 228.263 131.981C231.509 123.173 253.145 64.4725 226.847 44.3064V44.3078ZM206.394 85.2654C203.683 89.8994 194.083 90.0813 188.19 86.1189C183.989 83.2926 182.553 78.9524 182.263 78.0107C181.686 76.1331 180.549 72.4323 182.263 69.4759C185.109 64.5704 194.517 63.952 200.043 67.7689C203.004 69.8145 204.309 72.7583 205.124 74.5968C206.206 77.0411 208.36 81.9018 206.394 85.2654Z" fill="#FBF8F2"/>
<path d="M261.855 9.1102V0H267.146V9.1102L275.354 4.57914L278 8.92146L269.767 13.5006L278 18.0557L275.354 22.4209L267.121 17.8898V27H261.854V17.8898L253.646 22.4209L251 18.0557L259.233 13.5006L251 8.92146L253.646 4.57914L261.854 9.1102H261.855Z" fill="#FBF8F2"/>
<path d="M91.6874 51.6629C90.1836 47.427 85.4171 34.5625 72.5965 25.7985C67.3673 22.2235 58.4141 20.4291 40.5065 16.8374C18.8692 12.498 10.2659 12.5595 7.80743 16.6333C7.35029 17.3908 7.65969 17.3698 6.38585 22.1327C4.7371 28.2987 3.7629 30.033 2.93365 33.13C2.11555 36.1865 2.17408 40.3008 2.3246 48.4038C2.45143 55.2602 2.74411 56.6284 2.93365 63.271C2.98801 65.1535 3.16361 71.606 2.93365 78.3422C2.7678 83.2197 2.55735 83.3035 0.699547 102.374C-0.0948635 110.526 -0.572903 115.974 1.30859 122.944C1.99011 125.47 2.38871 126.942 3.13713 128.239C9.32238 138.955 40.2709 139.035 62.6454 125.795C67.5485 122.893 84.0499 112.245 91.2818 90.765C93.0574 85.4893 98.1068 69.7375 91.6874 51.6629ZM54.4728 74.1146C53.8498 77.6742 51.723 80.0877 50.3962 81.5957C48.6317 83.5998 45.1196 87.5856 41.2521 87.1747C35.9226 86.6073 31.7652 77.8866 32.9066 70.8457C33.7205 65.8257 37.0584 62.7148 37.7915 62.0593C39.2535 60.754 42.1357 58.1797 45.5294 58.5277C51.1599 59.1063 55.6351 67.4706 54.4728 74.1146Z" fill="#FBF8F2"/>
<path d="M120.855 10.1102V1H126.146V10.1102L134.354 5.57914L137 9.92146L128.767 14.5006L137 19.0557L134.354 23.4209L126.121 18.8898V28H120.854V18.8898L112.646 23.4209L110 19.0557L118.233 14.5006L110 9.92146L112.646 5.57914L120.854 10.1102H120.855Z" fill="#FBF8F2"/>
<path d="M252.37 39.6899C259.502 32.6756 275.904 34.2348 280.342 41.1655C283.002 45.3206 280.985 50.8147 279.973 54.0794C269.915 86.5425 293.334 111.143 280.71 124.188C272.947 132.211 256.124 131.134 252.739 125.663C251.035 122.911 253.303 119.967 254.579 112.749C256.135 103.936 254.604 97.8638 253.107 89.1342C248.2 60.5154 245.747 46.2054 252.37 39.6899Z" fill="#FBF8F2"/>
</svg>
