<?xml version="1.0" encoding="UTF-8"?>
<svg id="Layer_2" xmlns="http://www.w3.org/2000/svg" viewBox="0 0 438.65 438.65">
  <defs>
    <style>
      .cls-1 {
        fill: #231f20;
        stroke-width: 4px;
      }

      .cls-1, .cls-2 {
        stroke: #231f20;
        stroke-miterlimit: 10;
      }

      .cls-3 {
        fill: #010101;
      }

      .cls-2 {
        stroke-width: 2px;
      }
    </style>
  </defs>
  <g id="Layer_1-2" data-name="Layer_1">
    <g>
      <path class="cls-3" d="M248.57,7.31v7.31h-29.24v7.31c0,6.89-.42,7.31-7.31,7.31s-7.31.42-7.31,7.31v7.31h-29.24v7.31c0,6.89-.42,7.31-7.31,7.31s-7.31.42-7.31,7.31-.42,7.31-7.31,7.31-7.31.42-7.31,7.31v7.31h-29.24v-14.62h-43.86v14.62h-29.24v7.31c0,6.89-.42,7.31-7.31,7.31s-7.31.42-7.31,7.31-.42,7.31-7.31,7.31-7.31.42-7.31,7.31-.42,7.31-7.31,7.31H0v43.86h7.31c6.89,0,7.31.42,7.31,7.31s.42,7.31,7.31,7.31,7.31.42,7.31,7.31.42,7.31,7.31,7.31,7.31.42,7.31,7.31v7.31h43.86v14.62h102.35v-14.62h58.49v7.31c0,6.89.42,7.31,7.31,7.31s7.31.42,7.31,7.31v7.31h-73.11v7.31c0,6.89-.42,7.31-7.31,7.31s-7.31.42-7.31,7.31-.42,7.31-7.31,7.31-7.31.42-7.31,7.31-.42,7.31-7.31,7.31-7.31.42-7.31,7.31-.42,7.31-7.31,7.31h-7.31v73.11h7.31c6.89,0,7.31.42,7.31,7.31s.42,7.31,7.31,7.31,7.31.42,7.31,7.31.42,7.31,7.31,7.31,7.31.42,7.31,7.31.42,7.31,7.31,7.31,7.31.42,7.31,7.31v7.31h73.11v-7.31c0-6.89.42-7.31,7.31-7.31s7.31-.42,7.31-7.31.42-7.31,7.31-7.31,7.31-.42,7.31-7.31.42-7.31,7.31-7.31,7.31-.42,7.31-7.31.42-7.31,7.31-7.31h7.31v-73.11h-7.31c-6.89,0-7.31-.42-7.31-7.31s-.42-7.31-7.31-7.31-7.31-.42-7.31-7.31-.42-7.31-7.31-7.31-7.31-.42-7.31-7.31-.42-7.31-7.31-7.31-7.31-.42-7.31-7.31v-7.31h116.97v-7.31c0-6.89.42-7.31,7.31-7.31s7.31-.42,7.31-7.31.42-7.31,7.31-7.31,7.31-.42,7.31-7.31.42-7.31,7.31-7.31,7.31-.42,7.31-7.31.42-7.31,7.31-7.31h7.31v-58.49h-7.31c-6.89,0-7.31-.42-7.31-7.31s-.42-7.31-7.31-7.31-7.31-.42-7.31-7.31v-7.31h-29.24v-43.86h-14.62v-29.24h-7.31c-6.89,0-7.31-.42-7.31-7.31v-7.31h-29.24V0h-73.11v7.31ZM321.68,21.93v7.31h29.24v29.24h14.62v43.86h7.31c6.89,0,7.31.42,7.31,7.31v7.31h29.24v7.31c0,6.89.42,7.31,7.31,7.31h7.31v58.49h-7.31c-6.89,0-7.31.42-7.31,7.31s-.42,7.31-7.31,7.31-7.31.42-7.31,7.31-.42,7.31-7.31,7.31-7.31.42-7.31,7.31v7.31h-116.97v-7.31c0-6.89-.42-7.31-7.31-7.31s-7.31-.42-7.31-7.31v-7.31h-58.49v14.62h-102.35v-14.62h-43.86v-7.31c0-6.89-.42-7.31-7.31-7.31s-7.31-.42-7.31-7.31-.42-7.31-7.31-7.31h-7.31v-43.86h7.31c6.89,0,7.31-.42,7.31-7.31s.42-7.31,7.31-7.31,7.31-.42,7.31-7.31v-7.31h29.24v-14.62h43.86v14.62h29.24v-7.31c0-6.89.42-7.31,7.31-7.31s7.31-.42,7.31-7.31.42-7.31,7.31-7.31,7.31-.42,7.31-7.31v-7.31h29.24v-7.31c0-6.89.42-7.31,7.31-7.31s7.31-.42,7.31-7.31v-7.31h29.24v-14.62h73.11v7.31ZM204.7,270.5c0,6.89.42,7.31,7.31,7.31s7.31-.42,7.31-7.31v-7.31h43.86v7.31c0,6.89.42,7.31,7.31,7.31s7.31.42,7.31,7.31.42,7.31,7.31,7.31,7.31.42,7.31,7.31.42,7.31,7.31,7.31h7.31v43.86h-7.31c-6.89,0-7.31.42-7.31,7.31s.42,7.31,7.31,7.31,7.31.42,7.31,7.31-.42,7.31-7.31,7.31-7.31.42-7.31,7.31-.42,7.31-7.31,7.31-7.31.42-7.31,7.31-.42,7.31-7.31,7.31-7.31.42-7.31,7.31v7.31h-29.24v-7.31c0-6.89-.42-7.31-7.31-7.31s-7.31.42-7.31,7.31v7.31h-29.24v-7.31c0-6.89-.42-7.31-7.31-7.31s-7.31-.42-7.31-7.31-.42-7.31-7.31-7.31-7.31-.42-7.31-7.31-.42-7.31-7.31-7.31h-7.31v-73.11h7.31c6.89,0,7.31-.42,7.31-7.31s.42-7.31,7.31-7.31,7.31-.42,7.31-7.31.42-7.31,7.31-7.31,7.31-.42,7.31-7.31.42-7.31,7.31-7.31,7.31.42,7.31,7.31Z"/>
      <path class="cls-3" d="M219.32,285.12c0,6.89.42,7.31,7.31,7.31s7.31.42,7.31,7.31.42,7.31,7.31,7.31,7.31.42,7.31,7.31v7.31h43.86v-14.62h-43.86v-7.31c0-6.89-.42-7.31-7.31-7.31s-7.31-.42-7.31-7.31-.42-7.31-7.31-7.31-7.31.42-7.31,7.31Z"/>
      <path class="cls-3" d="M175.46,328.99c0,6.89-.42,7.31-7.31,7.31h-7.31v43.86h14.62v-43.86h43.86v29.24h-7.31c-6.89,0-7.31.42-7.31,7.31s-.42,7.31-7.31,7.31-7.31.42-7.31,7.31.42,7.31,7.31,7.31,7.31.42,7.31,7.31.42,7.31,7.31,7.31,7.31-.42,7.31-7.31-.42-7.31-7.31-7.31-7.31-.42-7.31-7.31.42-7.31,7.31-7.31,7.31-.42,7.31-7.31.42-7.31,7.31-7.31h7.31v-29.24h-7.31c-6.89,0-7.31-.42-7.31-7.31v-7.31h-43.86v7.31Z"/>
      <path class="cls-3" d="M263.19,343.61c0,6.89-.42,7.31-7.31,7.31h-7.31v29.24h7.31c6.89,0,7.31.42,7.31,7.31s.42,7.31,7.31,7.31,7.31-.42,7.31-7.31-.42-7.31-7.31-7.31h-7.31v-29.24h29.24v-14.62h-29.24v7.31Z"/>
    </g>
    <path class="cls-2" d="M187.3,173.38h-22.26c-3.93,0-7.28-1.18-10.05-3.53l-10.11-8.81c-3.22-2.69-4.84-6.33-4.84-10.91v-13.58c-.17-4.42,1.65-8.27,5.46-11.53l9.12-7.88c2.93-2.4,6.08-3.6,9.43-3.6h23.38c1.45,0,2.68.51,3.69,1.52,1.01,1.01,1.52,2.24,1.52,3.69s-.51,2.73-1.52,3.72c-1.01.99-2.24,1.49-3.69,1.49h-22.39c-1.41,0-2.75.56-4.03,1.67l-8.37,7.13c-1.36,1.16-2.05,2.71-2.05,4.65v12.71c0,1.36.54,2.52,1.61,3.47l9.18,7.81c1.16,1.03,2.69,1.55,4.59,1.55h21.33c1.41,0,2.62.51,3.66,1.52,1.03,1.01,1.55,2.24,1.55,3.69s-.51,2.68-1.52,3.69c-1.01,1.01-2.24,1.52-3.69,1.52Z"/>
    <path class="cls-2" d="M258.12,134.27v22.01c0,4.67-2.2,8.99-6.6,12.96-4.4,3.97-8.94,5.95-13.61,5.95h-12.22c-4.75,0-9.3-2.02-13.64-6.05-4.34-4.03-6.51-8.32-6.51-12.87v-22.01c0-4.55,2.12-8.84,6.36-12.87,4.24-4.03,8.84-6.05,13.8-6.05h12.22c4.67-.08,9.21,1.86,13.61,5.83,4.4,3.97,6.6,8.33,6.6,13.08ZM216.08,134.7v21.08c0,1.9.68,3.41,2.05,4.53l3.91,3.35c.87.74,2.09,1.12,3.66,1.12h12.09c1.78,0,3.39-.64,4.84-1.92l3.16-2.79c1.28-.99,1.92-2.38,1.92-4.15v-21.08c0-2.07-.64-3.6-1.92-4.59l-3.66-2.91c-1.24-1.03-2.69-1.55-4.34-1.55h-10.79c-2.36,0-4.18.56-5.46,1.67l-3.53,3.04c-1.28,1.08-1.92,2.48-1.92,4.22Z"/>
    <path class="cls-1" d="M301.77,190.11h-25.74v-19.54c0-1.57.56-2.92,1.67-4.04,1.11-1.12,2.44-1.68,3.99-1.68h17.18v-13.78h-20.21c-.81,0-1.48-.27-2.02-.83-.54-.55-.81-1.22-.81-2s.27-1.45.81-2,1.21-.83,2.02-.83h20.21c1.57,0,2.92.56,4.04,1.67,1.12,1.11,1.68,2.44,1.68,3.99v13.78c0,1.6-.56,2.95-1.68,4.06-1.12,1.11-2.47,1.67-4.04,1.67h-17.18v13.88h20.08c.76,0,1.43.28,1.99.83.56.55.84,1.22.84,2s-.28,1.45-.84,2-1.22.83-1.99.83Z"/>
  </g>
</svg>