<?xml version="1.0" encoding="UTF-8"?>
<svg id="Layer_2" xmlns="http://www.w3.org/2000/svg" viewBox="0 0 381.4 306.94">
  <defs>
    <style>
      .cls-1, .cls-2 {
        fill: #231f20;
      }

      .cls-2 {
        stroke: #231f20;
        stroke-miterlimit: 10;
      }

      .cls-3 {
        fill: #010101;
      }
    </style>
  </defs>
  <g id="Layer_1-2" data-name="Layer_1">
    <g>
      <path class="cls-3" d="M55.51,126.09v126.09h293.24v-11.73H67.24V0h-11.73v126.09Z"/>
      <path class="cls-3" d="M337.02,17.59v5.86h-11.73v11.73h-11.73v11.73h-11.73v11.73h-11.73v11.73h-11.73v11.73h-11.73v11.73h-11.73v11.73h-11.73v11.73h-11.73v11.73h-11.73v11.73h-11.73v11.73h-11.73v11.73h-11.73v11.73h-11.73v11.73h-11.73v11.73h-11.73v11.73h-11.73v11.73h-58.65v11.73h58.65v-11.73h11.73v-11.73h11.73v-11.73h11.73v-11.73h11.73v-11.73h11.73v-11.73h11.73v-11.73h11.73v-11.73h11.73v-11.73h11.73v-11.73h11.73v-11.73h11.73v-11.73h11.73v-11.73h11.73v-11.73h11.73v-11.73h11.73v-11.73h11.73v-11.73h11.73v-11.73h11.73v-11.73h-11.73v5.86Z"/>
    </g>
    <g>
      <path class="cls-2" d="M82.99,276.43l-5.8-5.8,4.41-4.41c.35-.35.78-.53,1.29-.54.5,0,.93.17,1.28.52l3.87,3.88,3.11-3.11-4.56-4.56c-.18-.18-.27-.4-.27-.64,0-.25.09-.46.27-.63s.39-.27.63-.27c.25,0,.46.09.64.27l4.56,4.56c.35.35.53.78.54,1.29,0,.5-.17.93-.52,1.28l-3.11,3.11c-.36.36-.79.54-1.3.54s-.93-.18-1.29-.54l-3.87-3.87-3.13,3.13,4.53,4.53c.17.17.26.38.26.63,0,.25-.08.46-.26.64-.18.18-.39.26-.64.26-.25,0-.46-.09-.63-.26Z"/>
      <path class="cls-2" d="M87.79,278.78l7.63-7.63c.33-.33.74-.5,1.23-.5.49,0,.9.17,1.23.5l3.98,3.98c.33.33.49.74.49,1.22,0,.48-.17.89-.5,1.23l-7.63,7.63c-.34.34-.75.51-1.23.51-.48,0-.89-.17-1.23-.51l-3.97-3.96c-.34-.35-.52-.76-.51-1.23s.17-.89.51-1.23ZM93.01,283.89l7.53-7.53-3.89-3.89-7.53,7.53,3.89,3.89Z"/>
      <path class="cls-2" d="M97.19,288.17l7.63-7.63c.33-.33.74-.5,1.23-.5s.9.17,1.23.5l3.98,3.98c.33.33.49.74.49,1.22,0,.48-.17.89-.5,1.23l-7.63,7.63c-.34.34-.75.51-1.23.51-.48,0-.89-.17-1.23-.51l-3.97-3.97c-.34-.34-.52-.75-.51-1.23,0-.48.17-.89.51-1.23ZM102.4,293.29l7.53-7.53-3.89-3.89-7.53,7.53,3.89,3.89Z"/>
      <path class="cls-2" d="M114.24,289.92l.55-.55c.18-.18.39-.27.64-.27s.46.09.64.27l5.79,5.79-3.92,3.92c-.21.21-.46.3-.75.28l-4.35-.34-2.97,2.97c-.18.18-.39.27-.65.27-.25,0-.47-.08-.65-.26s-.27-.39-.27-.65c0-.26.08-.47.25-.64l3.22-3.22c.24-.24.51-.36.79-.34l4.35.36,2.37-2.37-3.86-3.86c-.46.27-.85.24-1.19-.09-.18-.18-.27-.39-.27-.64,0-.25.09-.46.27-.64Z"/>
    </g>
    <g>
      <path class="cls-2" d="M146.71,277.02l-5.8-5.8,4.41-4.41c.35-.35.78-.53,1.29-.54.5,0,.93.17,1.28.52l3.87,3.88,3.11-3.11-4.56-4.56c-.18-.18-.27-.4-.27-.64,0-.25.09-.46.27-.63s.39-.27.63-.27c.25,0,.46.09.64.27l4.56,4.56c.35.35.53.78.54,1.29,0,.5-.17.93-.52,1.28l-3.11,3.11c-.36.36-.79.54-1.3.54s-.93-.18-1.29-.54l-3.87-3.87-3.13,3.13,4.53,4.53c.17.17.26.38.26.63,0,.25-.08.46-.26.64-.18.18-.39.26-.64.26-.25,0-.46-.09-.63-.26Z"/>
      <path class="cls-2" d="M151.51,279.37l7.63-7.63c.33-.33.74-.5,1.23-.5.49,0,.9.17,1.23.5l3.98,3.98c.33.33.49.74.49,1.22,0,.48-.17.89-.5,1.23l-7.63,7.63c-.34.34-.75.51-1.23.51-.48,0-.89-.17-1.23-.51l-3.97-3.96c-.34-.35-.52-.76-.51-1.23s.17-.89.51-1.23ZM156.73,284.49l7.53-7.53-3.89-3.89-7.53,7.53,3.89,3.89Z"/>
      <path class="cls-2" d="M161.58,289.34l1.96,1.96,7.53-7.53-1.93-1.93c-.18-.18-.27-.39-.27-.64s.09-.46.27-.64c.18-.18.39-.27.64-.27s.46.09.64.27l3.21,3.21-8.8,8.8,1.28,1.28,2.66-2.66c.17-.17.38-.26.63-.26.25,0,.46.08.64.26.18.18.27.39.27.64,0,.25-.09.46-.27.64l-3.3,3.3c-.18.18-.39.26-.64.27-.25,0-.46-.09-.64-.27l-5.15-5.15c-.18-.18-.26-.39-.26-.65,0-.25.1-.47.27-.65.17-.17.38-.26.63-.25s.46.09.63.27Z"/>
      <path class="cls-2" d="M170.31,298.16l7.63-7.63c.33-.33.74-.5,1.23-.5s.9.17,1.23.5l3.98,3.98c.33.33.49.73.49,1.22,0,.48-.17.89-.5,1.23l-7.63,7.63c-.34.34-.75.51-1.23.51s-.89-.17-1.23-.51l-3.96-3.96c-.34-.34-.52-.76-.51-1.23,0-.48.17-.89.51-1.23ZM175.52,303.28l7.53-7.53-3.89-3.89-7.53,7.53,3.89,3.89Z"/>
    </g>
    <g>
      <path class="cls-2" d="M346.86,278l-5.8-5.8,4.41-4.41c.35-.35.78-.53,1.29-.54.5,0,.93.17,1.28.52l3.88,3.88,3.11-3.11-4.56-4.56c-.18-.18-.27-.4-.27-.64,0-.25.09-.46.27-.63s.39-.27.63-.27c.25,0,.46.09.64.27l4.56,4.56c.35.35.53.78.54,1.29,0,.5-.17.93-.52,1.28l-3.11,3.11c-.36.36-.79.54-1.29.54s-.93-.18-1.29-.54l-3.87-3.87-3.13,3.13,4.53,4.53c.17.17.26.38.26.63,0,.25-.08.46-.26.64s-.39.26-.64.26c-.25,0-.46-.09-.63-.26Z"/>
      <path class="cls-2" d="M351.67,280.34l7.63-7.63c.33-.33.74-.5,1.23-.5.49,0,.9.17,1.23.5l3.98,3.98c.33.33.49.74.49,1.22s-.17.89-.5,1.23l-7.63,7.63c-.34.34-.75.51-1.23.51-.48,0-.89-.17-1.23-.51l-3.97-3.96c-.34-.35-.52-.76-.51-1.23s.17-.89.51-1.23ZM356.88,285.46l7.53-7.53-3.89-3.89-7.53,7.53,3.89,3.89Z"/>
      <path class="cls-2" d="M375.1,288.62l-2.39,2.39c-.56.56-1.18.84-1.87.84-.04.75-.29,1.36-.76,1.82l-2.49,2.49c-.35.35-.78.52-1.28.52-.5,0-.93-.18-1.29-.54l-4.51-4.51c-.18-.18-.27-.39-.27-.64s.09-.46.27-.64.39-.27.64-.27c.25,0,.46.09.64.27l4.5,4.5,2.49-2.49c.18-.18.27-.39.27-.65s-.08-.47-.26-.65l-2.57-2.57c-.18-.18-.27-.39-.27-.63,0-.25.09-.46.27-.64s.39-.27.64-.27.46.09.64.27l2.58,2.58c.17.17.38.26.63.26.25,0,.46-.08.64-.26l2.47-2.47-4.56-4.56c-.18-.18-.27-.39-.27-.64s.09-.46.27-.64.39-.27.64-.27c.25,0,.46.09.64.27l4.56,4.56c.35.35.53.78.53,1.28,0,.5-.18.92-.53,1.27Z"/>
      <path class="cls-2" d="M380,290.97l.64.64c.18.18.26.39.26.64,0,.25-.09.46-.26.63s-.39.27-.64.27-.46-.09-.64-.27l-4.22,4.21,4.5,4.5c.17.17.26.39.25.64,0,.26-.09.47-.27.65l-3.3,3.3c-.18.18-.39.26-.64.26-.25,0-.47-.1-.65-.27l-5.12-5.12c-.18-.18-.27-.39-.27-.65s.08-.47.25-.64l8.8-8.8c.18-.18.39-.26.64-.26.25,0,.47.09.65.28ZM373.84,298.38l-2.02,2.02,3.86,3.86,2.02-2.02-3.86-3.86Z"/>
    </g>
    <path class="cls-2" d="M39.96,234.47v-10.8c0-.47.17-.88.52-1.22s.75-.52,1.22-.52h5.63c.47,0,.87.17,1.21.52.34.34.51.75.51,1.22v10.8c0,.48-.17.89-.51,1.23s-.75.51-1.23.51h-5.61c-.49,0-.9-.17-1.24-.51-.34-.34-.5-.75-.5-1.23ZM47.26,234.4v-10.65h-5.5v10.65h5.5Z"/>
    <g>
      <path class="cls-2" d="M17.29,180.51h4.18v-4.43h-5.46v-8.02h6.36c.24,0,.45.09.63.27.18.18.27.39.27.63s-.09.46-.26.64-.39.26-.64.26h-4.53v4.42h3.63c.49,0,.91.18,1.27.54.36.36.54.78.54,1.27v4.43c0,.49-.18.92-.53,1.27s-.78.53-1.27.53h-4.18c-.37,0-.77-.09-1.19-.27l-1.36-.57c-.37-.15-.55-.44-.55-.86,0-.25.08-.46.25-.64.16-.18.37-.26.6-.26.18,0,.39.05.62.16l1.19.5c.14.09.29.13.44.13Z"/>
      <path class="cls-2" d="M27.24,180.57v-10.8c0-.47.17-.88.52-1.22s.75-.52,1.22-.52h5.63c.47,0,.87.17,1.21.52.34.34.51.75.51,1.22v10.8c0,.48-.17.89-.51,1.23s-.75.51-1.23.51h-5.61c-.49,0-.9-.17-1.24-.51-.34-.34-.5-.75-.5-1.23ZM34.55,180.51v-10.65h-5.5v10.65h5.5Z"/>
      <path class="cls-2" d="M40.53,180.57v-10.8c0-.47.17-.88.52-1.22s.75-.52,1.22-.52h5.63c.47,0,.87.17,1.21.52.34.34.51.75.51,1.22v10.8c0,.48-.17.89-.51,1.23s-.75.51-1.23.51h-5.61c-.49,0-.9-.17-1.24-.51-.34-.34-.5-.75-.5-1.23ZM47.83,180.51v-10.65h-5.5v10.65h5.5Z"/>
    </g>
    <g>
      <path class="cls-2" d="M2.59,126.61h2.77v-10.65h-2.73c-.25,0-.46-.09-.64-.26-.18-.18-.26-.39-.26-.64s.09-.46.26-.64.39-.26.64-.26h4.53v12.45h1.8v-3.76c0-.24.09-.45.26-.63.18-.18.39-.27.64-.27s.46.09.64.26c.18.18.26.39.26.64v4.66c0,.25-.09.46-.26.64s-.39.26-.64.26H2.59c-.25,0-.46-.09-.64-.27-.18-.18-.26-.4-.26-.65s.09-.45.26-.62c.18-.17.39-.26.64-.26Z"/>
      <path class="cls-2" d="M15,126.67v-10.8c0-.47.17-.88.52-1.22s.75-.52,1.22-.52h5.63c.47,0,.87.17,1.21.52.34.34.51.75.51,1.22v10.8c0,.48-.17.89-.51,1.23s-.75.51-1.23.51h-5.61c-.49,0-.9-.17-1.24-.51-.34-.34-.5-.75-.5-1.23ZM22.3,126.61v-10.65h-5.5v10.65h5.5Z"/>
      <path class="cls-2" d="M28.28,126.67v-10.8c0-.47.17-.88.52-1.22s.75-.52,1.22-.52h5.63c.47,0,.87.17,1.21.52.34.34.51.75.51,1.22v10.8c0,.48-.17.89-.51,1.23s-.75.51-1.23.51h-5.61c-.49,0-.9-.17-1.24-.51-.34-.34-.5-.75-.5-1.23ZM35.59,126.61v-10.65h-5.5v10.65h5.5Z"/>
      <path class="cls-2" d="M41.57,126.67v-10.8c0-.47.17-.88.52-1.22s.75-.52,1.22-.52h5.63c.47,0,.87.17,1.21.52.34.34.51.75.51,1.22v10.8c0,.48-.17.89-.51,1.23s-.75.51-1.23.51h-5.61c-.49,0-.9-.17-1.24-.51-.34-.34-.5-.75-.5-1.23ZM48.88,126.61v-10.65h-5.5v10.65h5.5Z"/>
    </g>
    <g>
      <path class="cls-2" d="M2.27,75.12h2.77v-10.65h-2.73c-.25,0-.46-.09-.64-.26-.18-.18-.26-.39-.26-.64s.09-.46.26-.64.39-.26.64-.26h4.53v12.45h1.8v-3.76c0-.24.09-.45.26-.63.18-.18.39-.27.64-.27s.46.09.64.26c.18.18.26.39.26.64v4.66c0,.25-.09.46-.26.64s-.39.26-.64.26H2.27c-.25,0-.46-.09-.64-.27-.18-.18-.26-.4-.26-.65s.09-.45.26-.62c.18-.17.39-.26.64-.26Z"/>
      <path class="cls-2" d="M18.02,75.12h4.18v-4.43h-5.46v-8.02h6.36c.24,0,.45.09.63.27.18.18.27.39.27.63s-.09.46-.26.64-.39.26-.64.26h-4.53v4.42h3.63c.49,0,.91.18,1.27.54.36.36.54.78.54,1.27v4.43c0,.49-.18.92-.53,1.27s-.78.53-1.27.53h-4.18c-.37,0-.77-.09-1.19-.27l-1.36-.57c-.37-.15-.55-.44-.55-.86,0-.25.08-.46.25-.64.16-.18.37-.26.6-.26.18,0,.39.05.62.16l1.19.5c.14.09.29.13.44.13Z"/>
      <path class="cls-2" d="M27.97,75.19v-10.8c0-.47.17-.88.52-1.22s.75-.52,1.22-.52h5.63c.47,0,.87.17,1.21.52.34.34.51.75.51,1.22v10.8c0,.48-.17.89-.51,1.23s-.75.51-1.23.51h-5.61c-.49,0-.9-.17-1.24-.51-.34-.34-.5-.75-.5-1.23ZM35.27,75.12v-10.65h-5.5v10.65h5.5Z"/>
      <path class="cls-2" d="M41.26,75.19v-10.8c0-.47.17-.88.52-1.22s.75-.52,1.22-.52h5.63c.47,0,.87.17,1.21.52.34.34.51.75.51,1.22v10.8c0,.48-.17.89-.51,1.23s-.75.51-1.23.51h-5.61c-.49,0-.9-.17-1.24-.51-.34-.34-.5-.75-.5-1.23ZM48.56,75.12v-10.65h-5.5v10.65h5.5Z"/>
    </g>
    <g>
      <path class="cls-2" d="M8.77,22.62H.56v-6.23c0-.5.18-.93.53-1.29s.78-.54,1.27-.54h5.48v-4.39H1.4c-.26,0-.47-.09-.64-.26-.17-.17-.26-.39-.26-.64s.09-.46.26-.64c.17-.17.39-.26.64-.26h6.45c.5,0,.93.18,1.29.53.36.35.54.78.54,1.27v4.39c0,.51-.18.94-.54,1.29-.36.35-.79.53-1.29.53H2.37v4.43h6.4c.24,0,.45.09.63.26.18.18.27.39.27.64s-.09.46-.27.64c-.18.18-.39.26-.63.26Z"/>
      <path class="cls-2" d="M13.83,20.88v-10.8c0-.47.17-.88.52-1.22s.75-.52,1.22-.52h5.63c.47,0,.87.17,1.21.52.34.34.51.75.51,1.22v10.8c0,.48-.17.89-.51,1.23-.34.34-.75.51-1.23.51h-5.61c-.49,0-.9-.17-1.24-.51-.34-.34-.5-.75-.5-1.23ZM21.14,20.82v-10.65h-5.5v10.65h5.5Z"/>
      <path class="cls-2" d="M27.12,20.88v-10.8c0-.47.17-.88.52-1.22s.75-.52,1.22-.52h5.63c.47,0,.87.17,1.21.52.34.34.51.75.51,1.22v10.8c0,.48-.17.89-.51,1.23-.34.34-.75.51-1.23.51h-5.61c-.49,0-.9-.17-1.24-.51-.34-.34-.5-.75-.5-1.23ZM34.42,20.82v-10.65h-5.5v10.65h5.5Z"/>
      <path class="cls-2" d="M40.41,20.88v-10.8c0-.47.17-.88.52-1.22s.75-.52,1.22-.52h5.63c.47,0,.87.17,1.21.52.34.34.51.75.51,1.22v10.8c0,.48-.17.89-.51,1.23-.34.34-.75.51-1.23.51h-5.61c-.49,0-.9-.17-1.24-.51-.34-.34-.5-.75-.5-1.23ZM47.71,20.82v-10.65h-5.5v10.65h5.5Z"/>
    </g>
    <rect class="cls-1" x="141.58" y="215.93" width="4" height="46.68"/>
    <rect class="cls-1" x="78.91" y="228.16" width="4" height="33.27"/>
    <rect class="cls-1" x="340.92" y="20.54" width="4" height="242.83"/>
  </g>
</svg>