<?xml version="1.0" encoding="UTF-8"?>
<svg id="Layer_2" xmlns="http://www.w3.org/2000/svg" viewBox="0 0 438.39 438.39">
  <defs>
    <style>
      .cls-1 {
        fill: #231f20;
        stroke: #231f20;
        stroke-miterlimit: 10;
      }

      .cls-2 {
        fill: #010101;
      }
    </style>
  </defs>
  <g id="Layer_1-2" data-name="Layer_1">
    <g>
      <path class="cls-2" d="M166.29,7.56v7.56h-45.35v7.56c0,6.8-.76,7.56-7.56,7.56s-7.56.76-7.56,7.56v7.56h-30.23v7.56c0,6.8-.76,7.56-7.56,7.56s-7.56.76-7.56,7.56-.76,7.56-7.56,7.56h-7.56v30.23h-7.56c-6.8,0-7.56.76-7.56,7.56s-.76,7.56-7.56,7.56h-7.56v45.35H0v105.82h15.12v45.35h7.56c6.8,0,7.56.76,7.56,7.56s.76,7.56,7.56,7.56h7.56v30.23h7.56c6.8,0,7.56.76,7.56,7.56s.76,7.56,7.56,7.56,7.56.76,7.56,7.56v7.56h30.23v7.56c0,6.8.76,7.56,7.56,7.56s7.56.76,7.56,7.56v7.56h45.35v15.12h105.82v-15.12h45.35v-7.56c0-6.8.76-7.56,7.56-7.56s7.56-.76,7.56-7.56v-7.56h30.23v-7.56c0-6.8.76-7.56,7.56-7.56s7.56-.76,7.56-7.56.76-7.56,7.56-7.56h7.56v-30.23h7.56c6.8,0,7.56-.76,7.56-7.56s.76-7.56,7.56-7.56h7.56v-45.35h15.12v-105.82h-7.56c-6.8,0-7.56-.76-7.56-7.56s-.76-7.56-7.56-7.56-7.56.76-7.56,7.56.76,7.56,7.56,7.56h7.56v105.82h-15.12v45.35h-7.56c-6.8,0-7.56.76-7.56,7.56s-.76,7.56-7.56,7.56h-7.56v30.23h-7.56c-6.8,0-7.56.76-7.56,7.56v7.56h-30.23v7.56c0,6.8-.76,7.56-7.56,7.56s-7.56.76-7.56,7.56v7.56h-45.35v15.12h-105.82v-15.12h-45.35v-7.56c0-6.8-.76-7.56-7.56-7.56s-7.56-.76-7.56-7.56v-7.56h-30.23v-7.56c0-6.8-.76-7.56-7.56-7.56h-7.56v-30.23h-7.56c-6.8,0-7.56-.76-7.56-7.56s-.76-7.56-7.56-7.56h-7.56v-45.35h-15.12v-105.82h15.12v-45.35h7.56c6.8,0,7.56-.76,7.56-7.56s.76-7.56,7.56-7.56h7.56v-30.23h7.56c6.8,0,7.56-.76,7.56-7.56v-7.56h30.23v-7.56c0-6.8.76-7.56,7.56-7.56s7.56-.76,7.56-7.56v-7.56h45.35v-15.12h105.82v7.56c0,6.8.76,7.56,7.56,7.56s7.56-.76,7.56-7.56-.76-7.56-7.56-7.56-7.56-.76-7.56-7.56V0h-105.82v7.56Z"/>
      <path class="cls-2" d="M317.45,22.68c0,6.8-.76,7.56-7.56,7.56h-7.56v30.23h-15.12v30.23h-15.12v30.23h-15.12v30.23h-15.12v30.23h-15.12v30.23h-7.56c-6.8,0-7.56.76-7.56,7.56s.76,7.56,7.56,7.56,7.56-.76,7.56-7.56v-7.56h30.23v-15.12h30.23v-15.12h30.23v-15.12h30.23v-15.12h30.23v-15.12h30.23v-7.56c0-6.8.76-7.56,7.56-7.56h7.56v-30.23h-15.12v-30.23h-7.56c-6.8,0-7.56-.76-7.56-7.56s-.76-7.56-7.56-7.56-7.56-.76-7.56-7.56v-7.56h-30.23v-15.12h-30.23v7.56ZM347.69,37.79v7.56h30.23v7.56c0,6.8.76,7.56,7.56,7.56h7.56v30.23h15.12v30.23h-30.23v15.12h-30.23v15.12h-30.23v15.12h-30.23v15.12h-30.23v7.56c0,6.8-.76,7.56-7.56,7.56s-7.56-.76-7.56-7.56.76-7.56,7.56-7.56h7.56v-30.23h15.12v-30.23h15.12v-30.23h15.12v-30.23h15.12v-30.23h30.23v7.56Z"/>
    </g>
    <g>
      <path class="cls-1" d="M139.7,299.21h-1.64c-.44,0-.83-.16-1.15-.48-.33-.32-.49-.71-.49-1.16s.16-.84.48-1.16c.32-.32.71-.48,1.16-.48v-10.84h-11.56c-.44,0-.83-.16-1.15-.49-.33-.33-.49-.71-.49-1.15v-8.52c0-.44.16-.83.49-1.15.33-.33.71-.49,1.15-.49h13.2c.44,0,.83.16,1.15.49.33.33.49.71.49,1.15v22.64c0,.46-.16.84-.48,1.16-.32.32-.71.48-1.16.48ZM138.1,281.77v-5.16h-9.96v5.16h9.96Z"/>
      <path class="cls-1" d="M148.9,296.09v-19.63c0-.86.31-1.6.94-2.23s1.37-.94,2.23-.94h10.23c.85,0,1.58.31,2.2.94s.93,1.37.93,2.23v19.63c0,.87-.31,1.62-.93,2.24-.62.62-1.36.93-2.24.93h-10.2c-.89,0-1.63-.31-2.25-.93-.61-.62-.92-1.36-.92-2.24ZM162.18,295.97v-19.36h-10v19.36h10Z"/>
      <path class="cls-1" d="M174.7,273.33h3.32c.46,0,.85.17,1.18.5s.5.73.5,1.18v2.83c0,.46-.16.85-.49,1.18s-.71.5-1.15.5h-3.4c-.44,0-.82-.16-1.13-.49-.31-.33-.47-.71-.47-1.15v-2.87c0-.46.16-.85.49-1.18s.71-.5,1.15-.5ZM189.17,279.06l-13.29,16.91c-.27.33-.63.5-1.07.5s-.82-.16-1.18-.48c-.36-.32-.54-.7-.54-1.14,0-.42.14-.81.43-1.19l13.29-16.94c.27-.33.65-.5,1.13-.5.45,0,.85.15,1.18.45.33.3.5.68.5,1.15,0,.44-.15.86-.45,1.25ZM184.62,293.14h3.32c.46,0,.84.16,1.16.47s.48.7.48,1.17v2.87c0,.46-.16.84-.48,1.16-.32.32-.71.48-1.16.48h-3.36c-.46,0-.84-.16-1.14-.47s-.46-.7-.46-1.17v-2.87c0-.47.16-.86.47-1.17s.7-.47,1.17-.47Z"/>
    </g>
    <g>
      <path class="cls-1" d="M319.1,109.31h5.04v-19.36h-4.96c-.46,0-.84-.16-1.16-.48-.32-.32-.48-.71-.48-1.16s.16-.84.48-1.16c.32-.32.71-.48,1.16-.48h8.24v22.64h3.28v-6.84c0-.44.16-.83.48-1.15.32-.33.71-.49,1.16-.49s.84.16,1.16.48c.32.32.48.71.48,1.16v8.48c0,.46-.16.84-.48,1.16-.32.32-.71.48-1.16.48h-13.24c-.46,0-.84-.17-1.16-.5s-.48-.73-.48-1.18.16-.82.48-1.13.71-.47,1.16-.47Z"/>
      <path class="cls-1" d="M341.66,109.43v-19.63c0-.86.31-1.6.94-2.23s1.37-.94,2.23-.94h10.23c.85,0,1.58.31,2.2.94s.93,1.37.93,2.23v19.63c0,.87-.31,1.62-.93,2.24-.62.62-1.36.93-2.24.93h-10.2c-.89,0-1.63-.31-2.25-.93-.61-.62-.92-1.36-.92-2.24ZM354.94,109.31v-19.36h-10v19.36h10Z"/>
      <path class="cls-1" d="M367.46,86.67h3.32c.46,0,.85.17,1.18.5s.5.73.5,1.18v2.83c0,.46-.16.85-.49,1.18s-.71.5-1.15.5h-3.4c-.44,0-.82-.16-1.13-.49-.31-.33-.47-.71-.47-1.15v-2.87c0-.46.16-.85.49-1.18s.71-.5,1.15-.5ZM381.94,92.4l-13.29,16.91c-.27.33-.63.5-1.07.5s-.82-.16-1.18-.48c-.36-.32-.54-.7-.54-1.14,0-.42.14-.81.43-1.19l13.29-16.94c.27-.33.65-.5,1.13-.5.45,0,.85.15,1.18.45.33.3.5.68.5,1.15,0,.44-.15.86-.45,1.25ZM377.38,106.48h3.32c.46,0,.84.16,1.16.47s.48.7.48,1.17v2.87c0,.46-.16.84-.48,1.16-.32.32-.71.48-1.16.48h-3.36c-.46,0-.84-.16-1.14-.47s-.46-.7-.46-1.17v-2.87c0-.47.16-.86.47-1.17s.7-.47,1.17-.47Z"/>
    </g>
  </g>
</svg>