<?xml version="1.0" standalone="no"?>
<!DOCTYPE svg PUBLIC "-//W3C//DTD SVG 20010904//EN"
 "http://www.w3.org/TR/2001/REC-SVG-20010904/DTD/svg10.dtd">
<svg version="1.0" xmlns="http://www.w3.org/2000/svg"
 width="272.000000pt" height="272.000000pt" viewBox="0 0 272.000000 272.000000"
 preserveAspectRatio="xMidYMid meet">

<g transform="translate(0.000000,272.000000) scale(0.100000,-0.100000)"
fill="#000000" stroke="none">
<path d="M1090 2310 l0 -50 -45 0 -45 0 0 -45 0 -45 -45 0 -45 0 0 -45 0 -45
-45 0 -45 0 0 -90 0 -90 -135 0 -135 0 0 -45 0 -45 -45 0 -45 0 0 -45 0 -45
-50 0 -50 0 0 -45 0 -45 -45 0 -45 0 0 -270 0 -270 -45 0 -45 0 0 -45 0 -45
-45 0 -45 0 0 -45 0 -45 -45 0 -45 0 0 -135 0 -135 45 0 45 0 0 -45 0 -45 45
0 45 0 0 -45 0 -45 90 0 90 0 0 -50 0 -50 320 0 320 0 0 -45 0 -45 45 0 45 0
0 -45 0 -45 45 0 45 0 0 -45 0 -45 45 0 45 0 0 -45 0 -45 270 0 270 0 0 45 0
45 45 0 45 0 0 45 0 45 45 0 45 0 0 45 0 45 45 0 45 0 0 45 0 45 45 0 45 0 0
-45 0 -45 45 0 45 0 0 -45 0 -45 140 0 140 0 0 45 0 45 45 0 45 0 0 45 0 45
45 0 45 0 0 140 0 140 -45 0 -45 0 0 45 0 45 -45 0 -45 0 0 45 0 45 45 0 45 0
0 45 0 45 45 0 45 0 0 180 0 180 -45 0 -45 0 0 45 0 45 -45 0 -45 0 0 45 0 45
-45 0 -45 0 0 45 0 45 45 0 45 0 0 135 0 135 -45 0 -45 0 0 45 0 45 -45 0 -45
0 0 45 0 45 -50 0 -50 0 0 45 0 45 -45 0 -45 0 0 45 0 45 -180 0 -180 0 0 45
0 45 -45 0 -45 0 0 50 0 50 -315 0 -315 0 0 -50z m630 -95 l0 -45 45 0 45 0 0
-45 0 -45 180 0 180 0 0 -45 0 -45 45 0 45 0 0 -45 0 -45 50 0 50 0 0 -45 0
-45 45 0 45 0 0 -135 0 -135 -45 0 -45 0 0 -45 0 -45 45 0 45 0 0 -45 0 -45
45 0 45 0 0 -45 0 -45 45 0 45 0 0 -180 0 -180 -45 0 -45 0 0 -45 0 -45 -45 0
-45 0 0 -45 0 -45 45 0 45 0 0 -45 0 -45 45 0 45 0 0 -140 0 -140 -45 0 -45 0
0 -45 0 -45 -140 0 -140 0 0 45 0 45 -45 0 -45 0 0 50 0 50 -45 0 -45 0 0 -50
0 -50 -45 0 -45 0 0 -45 0 -45 -45 0 -45 0 0 -45 0 -45 -45 0 -45 0 0 -45 0
-45 -270 0 -270 0 0 45 0 45 -45 0 -45 0 0 45 0 45 -45 0 -45 0 0 95 0 95
-365 0 -365 0 0 45 0 45 -90 0 -90 0 0 45 0 45 -45 0 -45 0 0 135 0 135 45 0
45 0 0 45 0 45 45 0 45 0 0 45 0 45 45 0 45 0 0 270 0 270 50 0 50 0 0 45 0
45 45 0 45 0 0 45 0 45 225 0 225 0 0 45 0 45 -45 0 -45 0 0 90 0 90 45 0 45
0 0 45 0 45 45 0 45 0 0 45 0 45 315 0 315 0 0 -45z"/>
<path d="M1720 2035 l0 -45 -45 0 -45 0 0 -45 0 -45 45 0 45 0 0 45 0 45 45 0
45 0 0 45 0 45 -45 0 -45 0 0 -45z"/>
<path d="M1000 1765 l0 -45 45 0 45 0 0 -45 0 -45 45 0 45 0 0 45 0 45 -45 0
-45 0 0 45 0 45 -45 0 -45 0 0 -45z"/>
<path d="M820 1495 l0 -45 -45 0 -45 0 0 -90 0 -90 -45 0 -45 0 0 -180 0 -180
45 0 45 0 0 -90 0 -90 45 0 45 0 0 -45 0 -45 180 0 180 0 0 45 0 45 45 0 45 0
0 45 0 45 45 0 45 0 0 90 0 90 -90 0 -90 0 0 -45 0 -45 -45 0 -45 0 0 -45 0
-45 -90 0 -90 0 0 45 0 45 -45 0 -45 0 0 180 0 180 45 0 45 0 0 45 0 45 90 0
90 0 0 -45 0 -45 45 0 45 0 0 -45 0 -45 90 0 90 0 0 90 0 90 -45 0 -45 0 0 45
0 45 -45 0 -45 0 0 45 0 45 -180 0 -180 0 0 -45z"/>
<path d="M1540 1495 l0 -45 -45 0 -45 0 0 -360 0 -360 45 0 45 0 0 -45 0 -45
180 0 180 0 0 45 0 45 45 0 45 0 0 360 0 360 -45 0 -45 0 0 45 0 45 -180 0
-180 0 0 -45z m270 -405 l0 -270 -90 0 -90 0 0 270 0 270 90 0 90 0 0 -270z"/>
<path d="M2170 1135 l0 -45 -45 0 -45 0 0 -90 0 -90 45 0 45 0 0 90 0 90 45 0
45 0 0 -135 0 -135 -45 0 -45 0 0 -45 0 -45 -45 0 -45 0 0 -90 0 -90 140 0
140 0 0 45 0 45 -95 0 -95 0 0 45 0 45 45 0 45 0 0 45 0 45 50 0 50 0 0 135 0
135 -50 0 -50 0 0 45 0 45 -45 0 -45 0 0 -45z"/>
</g>
</svg>
