<?xml version="1.0" standalone="no"?>
<!DOCTYPE svg PUBLIC "-//W3C//DTD SVG 20010904//EN"
 "http://www.w3.org/TR/2001/REC-SVG-20010904/DTD/svg10.dtd">
<svg version="1.0" xmlns="http://www.w3.org/2000/svg"
 width="182.000000pt" height="182.000000pt" viewBox="0 0 182.000000 182.000000"
 preserveAspectRatio="xMidYMid meet">

<g transform="translate(0.000000,182.000000) scale(0.100000,-0.100000)"
fill="#000000" stroke="none">
<path d="M970 1790 l0 -30 180 0 180 0 0 30 0 30 -180 0 -180 0 0 -30z"/>
<path d="M610 1670 l0 -30 120 0 120 0 0 30 0 30 -120 0 -120 0 0 -30z"/>
<path d="M910 1670 l0 -30 60 0 60 0 0 30 0 30 -60 0 -60 0 0 -30z"/>
<path d="M1450 1670 c0 -27 -3 -30 -30 -30 -28 0 -30 -3 -30 -35 l0 -35 -540
0 -540 0 0 -30 c0 -27 -3 -30 -30 -30 -27 0 -30 -3 -30 -30 0 -28 -3 -30 -35
-30 -32 0 -35 -2 -35 -30 0 -27 -3 -30 -30 -30 -27 0 -30 -3 -30 -30 0 -27 -3
-30 -30 -30 -27 0 -30 -3 -30 -30 0 -27 -3 -30 -30 -30 l-30 0 0 -90 0 -90 30
0 30 0 0 -60 0 -60 30 0 30 0 0 -60 0 -60 30 0 c27 0 30 -3 30 -30 0 -28 3
-30 35 -30 l35 0 0 -60 0 -60 30 0 30 0 0 -60 0 -60 30 0 30 0 0 -60 0 -60
-125 0 -125 0 0 -30 0 -30 155 0 155 0 0 -30 0 -30 -90 0 -90 0 0 -30 0 -30
120 0 120 0 0 -35 c0 -32 2 -35 30 -35 27 0 30 -3 30 -30 l0 -30 605 0 605 0
0 790 0 790 -155 0 -155 0 0 -30z m250 -395 l0 -365 -30 0 c-27 0 -30 -3 -30
-30 0 -27 3 -30 30 -30 l30 0 0 -150 0 -150 -65 0 -65 0 0 -60 0 -60 35 0 35
0 0 -60 0 -60 30 0 30 0 0 -65 0 -65 -575 0 -575 0 0 35 0 35 90 0 90 0 0 30
0 30 -120 0 -120 0 0 30 0 30 60 0 60 0 0 30 0 30 -90 0 -90 0 0 60 0 60 -30
0 -30 0 0 60 0 60 -30 0 -30 0 0 60 0 60 -30 0 c-27 0 -30 3 -30 30 0 28 -3
30 -35 30 l-35 0 0 60 0 60 -30 0 -30 0 0 60 0 60 -30 0 -30 0 0 60 0 60 575
0 575 0 0 30 0 30 -480 0 -480 0 0 60 0 60 570 0 570 0 0 30 0 30 -540 0 -540
0 0 30 0 30 540 0 540 0 0 30 c0 27 3 30 30 30 28 0 30 3 30 35 l0 35 125 0
125 0 0 -365z"/>
<path d="M1390 1330 l0 -60 30 0 30 0 0 -60 0 -60 30 0 30 0 0 -60 0 -60 30 0
30 0 0 -60 0 -60 35 0 35 0 0 60 0 60 -35 0 -35 0 0 60 0 60 -30 0 -30 0 0 60
0 60 -30 0 -30 0 0 60 0 60 -30 0 -30 0 0 -60z"/>
<path d="M1210 1150 l0 -60 30 0 30 0 0 -60 0 -60 -90 0 -90 0 0 -30 0 -30
120 0 120 0 0 -30 c0 -27 3 -30 30 -30 27 0 30 -3 30 -30 l0 -30 -60 0 -60 0
0 -30 0 -30 90 0 90 0 0 -30 c0 -27 3 -30 30 -30 l30 0 0 -60 0 -60 30 0 30 0
0 60 0 60 -30 0 c-27 0 -30 3 -30 30 l0 30 65 0 65 0 0 30 0 30 -95 0 -95 0 0
30 c0 27 -3 30 -30 30 -27 0 -30 3 -30 30 0 27 3 30 30 30 27 0 30 3 30 30 l0
30 -60 0 -60 0 0 60 0 60 -30 0 -30 0 0 60 0 60 -30 0 -30 0 0 -60z"/>
<path d="M970 820 l0 -30 90 0 90 0 0 30 0 30 -90 0 -90 0 0 -30z"/>
<path d="M0 400 c0 -27 3 -30 30 -30 27 0 30 3 30 30 0 27 -3 30 -30 30 -27 0
-30 -3 -30 -30z"/>
</g>
</svg>
