<?xml version="1.0" standalone="no"?>
<!DOCTYPE svg PUBLIC "-//W3C//DTD SVG 20010904//EN"
 "http://www.w3.org/TR/2001/REC-SVG-20010904/DTD/svg10.dtd">
<svg version="1.0" xmlns="http://www.w3.org/2000/svg"
 width="174.000000pt" height="174.000000pt" viewBox="0 0 174.000000 174.000000"
 preserveAspectRatio="xMidYMid meet">

<g transform="translate(0.000000,174.000000) scale(0.100000,-0.100000)"
fill="#000000" stroke="none">
<path d="M120 1700 c0 -25 -4 -30 -25 -30 -20 0 -25 -5 -25 -25 0 -21 -5 -25
-30 -25 l-30 0 0 -750 0 -750 30 0 c25 0 30 -4 30 -25 0 -20 5 -25 25 -25 21
0 25 -5 25 -30 l0 -30 750 0 750 0 0 30 c0 25 4 30 25 30 20 0 25 5 25 25 0
21 5 25 30 25 l30 0 0 690 0 690 -30 0 c-27 0 -30 3 -30 30 0 25 -4 30 -25 30
-21 0 -25 5 -25 30 0 27 -3 30 -30 30 -25 0 -30 4 -30 25 0 21 -5 25 -30 25
-27 0 -30 3 -30 30 l0 30 -690 0 -690 0 0 -30z m230 -200 l0 -170 30 0 30 0 0
170 0 170 460 0 460 0 0 -170 0 -170 30 0 30 0 0 170 0 170 55 0 c52 0 55 -1
55 -25 0 -21 5 -25 30 -25 27 0 30 -3 30 -30 0 -27 3 -30 30 -30 27 0 30 -3
30 -30 0 -25 4 -30 25 -30 l25 0 0 -690 0 -690 -25 0 c-20 0 -25 -5 -25 -25
l0 -25 -750 0 -750 0 0 25 c0 20 -5 25 -25 25 l-25 0 0 750 0 750 25 0 c20 0
25 5 25 25 l0 25 115 0 115 0 0 -170z"/>
<path d="M980 1505 l0 -115 90 0 90 0 0 115 0 115 -90 0 -90 0 0 -115z"/>
<path d="M180 1500 l0 -60 30 0 30 0 0 60 0 60 -30 0 -30 0 0 -60z"/>
<path d="M410 1300 l0 -30 460 0 460 0 0 30 0 30 -460 0 -460 0 0 -30z"/>
<path d="M410 1070 c0 -27 -3 -30 -30 -30 l-30 0 0 -400 0 -400 30 0 c27 0 30
-3 30 -30 l0 -30 460 0 460 0 0 30 c0 27 3 30 30 30 l30 0 0 400 0 400 -30 0
c-27 0 -30 3 -30 30 l0 30 -460 0 -460 0 0 -30z m920 -255 l0 -55 -460 0 -460
0 0 55 0 55 460 0 460 0 0 -55z m0 -175 l0 -60 -460 0 -460 0 0 60 0 60 460 0
460 0 0 -60z m0 -170 l0 -60 -460 0 -460 0 0 60 0 60 460 0 460 0 0 -60z m0
-175 l0 -55 -460 0 -460 0 0 55 0 55 460 0 460 0 0 -55z"/>
</g>
</svg>
