<?xml version="1.0" standalone="no"?>
<!DOCTYPE svg PUBLIC "-//W3C//DTD SVG 20010904//EN"
 "http://www.w3.org/TR/2001/REC-SVG-20010904/DTD/svg10.dtd">
<svg version="1.0" xmlns="http://www.w3.org/2000/svg"
 width="192.000000pt" height="192.000000pt" viewBox="0 0 192.000000 192.000000"
 preserveAspectRatio="xMidYMid meet">

<g transform="translate(0.000000,192.000000) scale(0.100000,-0.100000)"
fill="#000000" stroke="none">
<path d="M770 1885 l0 -35 -65 0 -65 0 0 -30 c0 -27 -3 -30 -30 -30 -27 0 -30
-3 -30 -30 0 -28 -3 -30 -35 -30 -33 0 -35 -2 -35 -35 0 -32 -2 -35 -30 -35
l-30 0 0 -160 0 -160 30 0 c27 0 30 -3 30 -30 l0 -30 -190 0 -190 0 0 -30 c0
-27 -3 -30 -30 -30 -28 0 -30 -3 -30 -35 0 -33 -2 -35 -35 -35 l-35 0 0 -510
0 -510 35 0 c32 0 35 -2 35 -30 0 -27 3 -30 30 -30 28 0 30 -3 30 -35 l0 -35
830 0 830 0 0 35 c0 32 2 35 30 35 27 0 30 3 30 30 0 28 3 30 35 30 l35 0 0
510 0 510 -35 0 c-33 0 -35 2 -35 35 0 32 -2 35 -30 35 -27 0 -30 3 -30 30 l0
30 -190 0 -190 0 0 30 c0 27 3 30 30 30 l30 0 0 160 0 160 -30 0 c-28 0 -30 3
-30 35 0 33 -2 35 -35 35 -32 0 -35 2 -35 30 0 27 -3 30 -30 30 -27 0 -30 3
-30 30 l0 30 -65 0 -65 0 0 35 0 35 -190 0 -190 0 0 -35z m380 -65 l0 -30 65
0 65 0 0 -30 c0 -27 3 -30 30 -30 28 0 30 -3 30 -35 0 -33 2 -35 35 -35 l35 0
0 -160 0 -160 -35 0 c-32 0 -35 -2 -35 -30 0 -27 -3 -30 -30 -30 -27 0 -30 -3
-30 -30 l0 -30 225 0 225 0 0 -35 c0 -32 2 -35 30 -35 27 0 30 -3 30 -30 0
-27 3 -30 30 -30 l30 0 0 -450 0 -450 -30 0 c-27 0 -30 -3 -30 -30 0 -27 -3
-30 -30 -30 -27 0 -30 -3 -30 -30 l0 -30 -770 0 -770 0 0 30 c0 27 -3 30 -30
30 -27 0 -30 3 -30 30 0 27 -3 30 -30 30 l-30 0 0 450 0 450 30 0 c27 0 30 3
30 30 0 27 3 30 30 30 28 0 30 3 30 35 l0 35 225 0 225 0 0 30 c0 27 -3 30
-30 30 -27 0 -30 3 -30 30 0 28 -3 30 -35 30 l-35 0 0 160 0 160 35 0 c33 0
35 2 35 35 0 32 2 35 30 35 27 0 30 3 30 30 l0 30 65 0 65 0 0 30 0 30 190 0
190 0 0 -30z"/>
<path d="M770 1760 c0 -28 -3 -30 -35 -30 -33 0 -35 -2 -35 -35 0 -32 -2 -35
-30 -35 -27 0 -30 -3 -30 -30 0 -27 -3 -30 -30 -30 l-30 0 0 -130 0 -130 30 0
c27 0 30 -3 30 -30 0 -27 3 -30 30 -30 27 0 30 -3 30 -30 l0 -30 260 0 260 0
0 30 c0 27 3 30 30 30 27 0 30 3 30 30 0 27 3 30 30 30 l30 0 0 130 0 130 -30
0 c-27 0 -30 3 -30 30 0 27 -3 30 -30 30 -28 0 -30 3 -30 35 0 33 -2 35 -35
35 -32 0 -35 2 -35 30 l0 30 -190 0 -190 0 0 -30z m380 -65 c0 -33 2 -35 35
-35 32 0 35 -2 35 -30 0 -27 3 -30 30 -30 l30 0 0 -130 0 -130 -30 0 c-27 0
-30 -3 -30 -30 l0 -30 -260 0 -260 0 0 30 c0 27 -3 30 -30 30 l-30 0 0 130 0
130 30 0 c27 0 30 3 30 30 0 28 3 30 35 30 33 0 35 2 35 35 l0 35 190 0 190 0
0 -35z"/>
<path d="M830 1055 c0 -32 -2 -35 -30 -35 -27 0 -30 -3 -30 -30 0 -28 -3 -30
-35 -30 -32 0 -35 -2 -35 -30 0 -27 -3 -30 -30 -30 l-30 0 0 -130 0 -130 30 0
c27 0 30 -3 30 -30 0 -28 3 -30 35 -30 33 0 35 -2 35 -35 0 -32 2 -35 30 -35
l30 0 0 -125 0 -125 35 0 c33 0 35 -2 35 -35 l0 -35 60 0 60 0 0 35 c0 33 2
35 35 35 l35 0 0 125 0 125 30 0 c28 0 30 3 30 35 0 33 2 35 35 35 32 0 35 2
35 30 0 27 3 30 30 30 l30 0 0 130 0 130 -30 0 c-27 0 -30 3 -30 30 0 28 -3
30 -35 30 -32 0 -35 2 -35 30 0 27 -3 30 -30 30 -28 0 -30 3 -30 35 l0 35
-130 0 -130 0 0 -35z m260 -65 c0 -27 3 -30 30 -30 27 0 30 -3 30 -30 0 -28 3
-30 35 -30 l35 0 0 -130 0 -130 -35 0 c-32 0 -35 -2 -35 -30 l0 -30 -65 0 -65
0 0 -160 0 -160 -60 0 -60 0 0 160 0 160 -65 0 -65 0 0 30 c0 28 -3 30 -35 30
l-35 0 0 130 0 130 35 0 c32 0 35 2 35 30 0 27 3 30 30 30 27 0 30 3 30 30 l0
30 130 0 130 0 0 -30z"/>
</g>
</svg>
