<?xml version="1.0" standalone="no"?>
<!DOCTYPE svg PUBLIC "-//W3C//DTD SVG 20010904//EN"
 "http://www.w3.org/TR/2001/REC-SVG-20010904/DTD/svg10.dtd">
<svg version="1.0" xmlns="http://www.w3.org/2000/svg"
 width="240.000000pt" height="240.000000pt" viewBox="0 0 240.000000 240.000000"
 preserveAspectRatio="xMidYMid meet">

<g transform="translate(0.000000,240.000000) scale(0.100000,-0.100000)"
fill="#000000" stroke="none">
<path d="M720 2350 l0 -40 -40 0 c-39 0 -40 -1 -40 -35 0 -34 -1 -35 -40 -35
l-40 0 0 -1040 0 -1040 40 0 c39 0 40 -1 40 -35 0 -34 1 -35 40 -35 l40 0 0
-40 0 -40 560 0 560 0 0 40 0 40 40 0 c39 0 40 1 40 35 0 34 1 35 40 35 l40 0
0 1040 0 1040 -40 0 c-39 0 -40 1 -40 35 0 34 -1 35 -40 35 l-40 0 0 40 0 40
-560 0 -560 0 0 -40z m640 -75 l0 -35 -240 0 -240 0 0 35 0 35 240 0 240 0 0
-35z m240 0 c0 -34 -1 -35 -40 -35 -39 0 -40 1 -40 35 0 34 1 35 40 35 39 0
40 -1 40 -35z m160 -1075 l0 -880 -480 0 -480 0 0 880 0 880 480 0 480 0 0
-880z m-320 -1000 l0 -40 -40 0 c-39 0 -40 -1 -40 -35 l0 -35 -80 0 -80 0 0
35 c0 34 -1 35 -40 35 l-40 0 0 40 0 40 160 0 160 0 0 -40z"/>
</g>
</svg>
