<?xml version="1.0" encoding="UTF-8"?>
<svg id="Layer_1" xmlns="http://www.w3.org/2000/svg" viewBox="0 0 936.51 375">
  <defs>
    <style>
      .cls-1 {
        fill: #f8f5ee;
      }
    </style>
  </defs>
  <path class="cls-1" d="M932.76,272c0,1.71,0,3.43-.37,5.65-.79,1.33-1.42,2.11-1.61,2.98-6.8,32.82-26.99,54.22-57.48,66.25-22.44,8.85-45.76,13.4-70.1,12.21-17.14-.84-33.22-5.07-47.72-14.06-17.97-11.14-36.92-16.16-58.22-14.28-16.53,1.46-31.86,5.58-46.53,13.18-13.18,6.83-27.53,9.82-42.26,9.93-10.74.08-21.6-.47-32.21-2.05-14.33-2.13-28.51-5.98-40.41-14.58-15.5-11.2-32.96-15.34-51.41-16.06-8.71-.34-17.59.58-26.21,1.98-13.13,2.14-25.9,5.65-37.07,13.55-6.08,4.3-12.25,8.75-18.97,11.84-16.03,7.38-32.73,12.9-50.45,14.63-14.53,1.42-29.13,2.32-43.44-1.21-16.69-4.11-32.53-11.63-50.07-12.33-12.1-.48-24.29-2.27-36.25-1.26-11.4.96-23.02,3.59-33.73,7.63-19.15,7.21-38.16,14.42-58.58,17.12-.7.09-1.27,1.22-1.89,1.87-3.03,0-6.06,0-9.64-.16-.82-.05-1.09.05-1.36.16-3.69,0-7.39,0-11.63-.16-.82-.05-1.1.05-1.37.16-3.03,0-6.06,0-9.63-.38-1.03-.76-1.47-1.35-2.03-1.5-7.66-2.09-15.58-3.46-22.96-6.28-33.26-12.7-55.72-35.28-63.42-70.97-.23-1.05-1.29-1.92-1.97-2.88,0-1.71,0-3.43.15-5.67.05-.79-.05-1.06-.15-1.33,0-12.35,0-24.71.15-37.63.05-.84-.05-1.1-.15-1.37,0-2.04,0-4.08.37-6.64.64-.7,1.1-.86,1.14-1.08,2.98-16.38,10.65-30.92,17.5-45.85,2.24-4.89,3.2-11.02,2.68-16.37-.77-7.83-2.9-15.63-5.35-23.16-5.06-15.57-11.91-30.59-13.98-47.07-.29-2.34-1.55-4.55-2.36-6.83,0-5.69,0-11.38.38-17.62.78-1.22,1.48-1.85,1.55-2.54,2.05-21.21,11.62-38.83,26.46-53.57C44.35,14.16,59.09,6.1,75.89,1.97,76.95,1.71,77.81.67,78.76,0c1.07,0,2.13,0,3.69.16.76.05,1.04-.05,1.31-.16,2.37,0,4.74,0,7.65.16.81.05,1.08-.05,1.35-.16,1.39,0,2.78,0,4.66.37,3.91,1.34,7.29,2.46,10.74,3.25,20.42,4.66,39.37,13,57.93,22.47,10.97,5.6,22.97,7.65,34.91,5.44,20.99-3.88,41.88-8.48,62.59-13.66,20.77-5.19,41.45-5.24,62.01-.27,16.27,3.93,32.16,9.38,48.29,13.91,24.26,6.8,48.4,13.84,74.24,10.66,13.48-1.66,26.44-4.16,38.71-10.16,9.4-4.6,18.75-9.59,28.63-12.87,17.39-5.77,35.35-7.6,53.84-6.4,17.2,1.12,34.05,3.7,50.11,9.52,13.06,4.74,25.45,11.32,38.12,17.12,10.63,4.87,22.02,6.41,33.09,3.82,10.72-2.51,20.95-7.23,31.26-11.33,25.91-10.3,52.82-16.78,80.43-19.68,24.82-2.61,48.25,3.31,69.75,16.04,10.2,6.04,19.17,13.58,26.09,23.41,11.4,16.18,15.65,34.21,14.6,53.75-.82,15.35-4.05,29.79-13.94,42.22-3.45,4.34-4.84,9.54-3.32,15.45,3.5,13.67,11.17,25.23,18.87,36.57,7.69,11.32,13.71,23.06,16.41,36.48.21,1.05,1.29,1.92,1.96,2.88,0,1.71,0,3.43-.15,5.67-.05.79.05,1.06.15,1.33,0,8.02,0,16.04-.15,24.63-.05.84.05,1.1.15,1.37Z"/>
</svg>