<?xml version="1.0" encoding="UTF-8"?>
<svg id="Layer_1" xmlns="http://www.w3.org/2000/svg" viewBox="0 0 879.52 352.34">
  <defs>
    <style>
      .cls-1 {
        fill: #f8f5ee;
      }
    </style>
  </defs>
  <path class="cls-1" d="M873.31,262.46c-2.35,8.55-5.72,21.66-14.84,33.73-9.48,12.54-22.65,21.86-38.98,28.3-21.01,8.29-42.84,12.55-65.64,11.43-16.05-.78-31.1-4.75-44.68-13.17-16.82-10.43-34.57-15.13-54.5-13.37-15.48,1.37-29.83,5.22-43.56,12.34-12.34,6.39-25.78,9.19-39.57,9.3-10.06.08-20.22-.44-30.16-1.92-13.42-1.99-26.7-5.6-37.83-13.65-14.51-10.49-30.86-14.36-48.14-15.03-8.15-.32-16.46.54-24.54,1.86-12.3,2-24.25,5.29-34.71,12.69-5.7,4.03-11.47,8.19-17.76,11.09-15.01,6.91-30.64,12.08-47.23,13.7-13.6,1.33-27.27,2.17-40.67-1.13-15.63-3.85-30.45-10.89-46.88-11.55-11.32-.45-22.74-2.13-33.94-1.18-3.08.26-11.26,1.27-31.58,7.14-18.62,5.38-25.76,8.63-34.09,11.18-11.53,3.54-43.82,11.44-77.41-1.04-9.17-3.41-28.17-12.18-43.83-31.37-3.62-4.44-10.43-12.92-15.24-25.8-11.24-30.06-2.03-58.43-.73-62.27,3.63-10.69,7.5-23.56,16.38-42.93,2.1-4.58,3-10.31,2.51-15.33-1.01-10.26-3.42-18.08-5.01-21.68-4.36-9.88-13.35-30.28-16.01-44.21C-1.39,67.94,19.06,37.1,31.95,24.32c2.8-2.78,5-4.75,7.14-6.44,0,0,2.94-2.32,6.06-4.32,12.73-8.12,29.31-10.78,29.31-10.78,3.84-.62,14.41-2.03,28.65.33,23.93,3.98,30.43,8.89,54.24,21.04,10.27,5.24,21.51,7.16,32.68,5.1,19.65-3.63,39.21-7.94,58.6-12.79,19.45-4.86,38.81-4.91,58.06-.25,15.23,3.68,30.11,8.79,45.21,13.02,22.71,6.37,45.32,12.96,69.51,9.98,12.62-1.55,24.76-3.89,36.24-9.51,8.8-4.31,17.55-8.98,26.8-12.05,16.28-5.41,33.09-7.12,50.41-5.99,16.11,1.05,31.88,3.46,46.92,8.92,12.23,4.43,23.83,10.6,35.69,16.03,9.95,4.56,20.62,6,30.98,3.58,10.03-2.35,19.61-6.77,29.26-10.61,24.26-9.64,49.46-15.71,75.3-18.43,23.24-2.44,45.17,3.1,65.31,15.01,9.55,5.65,17.95,12.71,24.43,21.92,10.67,15.15,14.65,32.03,13.67,50.32-.77,14.37-3.79,27.89-13.05,39.53-3.23,4.07-4.53,8.93-3.11,14.47,3.28,12.8,10.46,23.62,17.67,34.24,9.99,14.7,13.46,27.56,15.36,34.16,2.66,9.25,3.16,15.06,3.27,18.89.09,3.2.07,10.63-3.28,22.78Z"/>
</svg>